<?xml version="1.0" standalone="no"?>
<!DOCTYPE svg PUBLIC "-//W3C//DTD SVG 1.1//EN" "http://www.w3.org/Graphics/SVG/1.1/DTD/svg11.dtd" >
<svg>
<metadata>
Created by FontForge 20120731 at Thu Oct 12 14:26:53 2017
 By www
Copyright (c) 2010 by Typemade. All rights reserved.
</metadata>
<defs>
<font id="JosefinSans-LightItalic" horiz-adv-x="469" >
  <font-face 
    font-family="Josefin Sans"
    font-weight="300"
    font-style="italic"
    font-stretch="normal"
    units-per-em="1000"
    panose-1="0 0 0 0 0 0 0 0 0 0"
    ascent="750"
    descent="-250"
    x-height="375"
    cap-height="700"
    bbox="-41 -250 1097 932"
    underline-thickness="50"
    underline-position="-50"
    unicode-range="U+0020-203A"
  />
<missing-glyph horiz-adv-x="300" 
 />
    <glyph glyph-name=".notdef" horiz-adv-x="300" 
 />
    <glyph glyph-name=".null" horiz-adv-x="0" 
 />
    <glyph glyph-name="nonmarkingreturn" horiz-adv-x="300" 
 />
    <glyph glyph-name="space" unicode=" " horiz-adv-x="300" 
 />
    <glyph glyph-name="space" unicode="&#xa0;" horiz-adv-x="300" 
 />
    <glyph glyph-name="t" unicode="t" horiz-adv-x="282" 
d="M216 619h27l-34 -249h121l-4 -27h-121l-48 -343h-27l47 343h-88l4 27h88z" />
    <glyph glyph-name="b" unicode="b" horiz-adv-x="528" 
d="M471 188q5 35 -3.5 65.5t-28 53.5t-48.5 36t-64 13t-67.5 -13t-58.5 -36t-43 -53.5t-22 -65.5t4 -65.5t28.5 -53t48.5 -35.5t64 -13t67.5 13t58 35.5t42.5 53t22 65.5zM499 188q-6 -41 -26 -77t-50 -62t-67.5 -41t-78.5 -15q-63 1 -104 32.5t-52 76.5q-2 -14 -3.5 -26.5
t-3.5 -25.5l-6 -50h-26l105 750h28l-60 -426q-2 -13 -4.5 -25t-4.5 -25q12 22 31 42t43 35t52.5 23.5t58.5 8.5q41 0 74.5 -15.5t56 -41.5t33 -62t4.5 -76z" />
    <glyph glyph-name="l" unicode="l" horiz-adv-x="185" 
d="M108 0h-28l105 750h28z" />
    <glyph glyph-name="m" unicode="m" horiz-adv-x="796" 
d="M162 375h26l-6 -44q-2 -14 -4 -27t-5 -27q27 48 74.5 76.5t104.5 28.5q51 0 78 -27.5t26 -72.5q27 45 74.5 72.5t102.5 27.5q54 0 81 -31t21 -81l-37 -270h-28l37 268q4 35 -16 60t-62 27q-32 0 -62 -10.5t-54.5 -28.5t-41.5 -43.5t-23 -55.5l-30 -217h-28l37 268
q4 35 -16 60t-63 27q-32 0 -62.5 -10.5t-55.5 -29.5t-42 -45.5t-21 -57.5l-29 -212h-28z" />
    <glyph glyph-name="i" unicode="i" horiz-adv-x="183" 
d="M139 504q1 11 10 19t20 8t17.5 -8t4.5 -19t-10.5 -18.5t-19.5 -7.5t-17.5 7.5t-4.5 18.5zM108 0h-28l52 375h28z" />
    <glyph glyph-name="h" unicode="h" horiz-adv-x="491" 
d="M215 750h28l-60 -428l-10 -45q27 48 74.5 76.5t104.5 28.5q54 0 81.5 -31t21.5 -81l-37 -270h-28l37 268q4 35 -16 60t-63 27q-32 0 -62.5 -10.5t-55.5 -29.5t-42 -45.5t-21 -57.5l-29 -212h-28z" />
    <glyph glyph-name="c" unicode="c" horiz-adv-x="385" 
d="M344 57l15 -21q-29 -20 -61.5 -31.5t-67.5 -11.5q-41 0 -74.5 15.5t-56 41.5t-33 61.5t-4.5 76.5q6 44 26 80t50 61.5t67.5 39.5t78.5 14q36 0 66 -11.5t52 -31.5l-10.5 -10.5l-10.5 -10.5q-20 17 -45 27t-56 10q-35 0 -67 -13t-58 -36t-43 -53.5t-22 -65.5t3.5 -65.5
t28 -53t48.5 -35.5t64 -13q30 0 58 9.5t52 26.5z" />
    <glyph glyph-name="q" unicode="q" horiz-adv-x="512" 
d="M106 187q-5 -35 3.5 -65.5t28 -53.5t48.5 -36t64 -13t67.5 13t58.5 36t43.5 53.5t22.5 65.5t-4 65.5t-28.5 53t-48.5 35.5t-64 13t-67.5 -13t-58.5 -35.5t-43 -53t-22 -65.5zM78 187q6 44 26 80t50 61.5t68 39.5t79 14q30 0 56 -9t46.5 -24t34 -35.5t19.5 -42.5
q3 26 6.5 52t7.5 52h25l-88 -625h-29l43 303q2 11 4.5 23t5.5 24q-24 -46 -73.5 -77t-112.5 -31q-41 0 -74.5 15.5t-56 41.5t-33 61.5t-4.5 76.5z" />
    <glyph glyph-name="u" unicode="u" horiz-adv-x="529" 
d="M418 -2h-28l7 55l9 45q-27 -48 -75 -76.5t-104 -28.5q-54 0 -81 31t-22 81l38 270h28l-38 -268q-3 -35 17 -60t62 -27q32 0 63 10.5t55.5 29.5t41.5 45.5t21 57.5l30 212h28z" />
    <glyph glyph-name="r" unicode="r" horiz-adv-x="331" 
d="M344 355q-32 -1 -62 -12t-54 -30t-40.5 -45t-20.5 -56l-29 -212h-28l52 375h26l-6 -44q-2 -14 -4 -27t-5 -27q29 49 77 76.5t99 28.5z" />
    <glyph glyph-name="e" unicode="e" horiz-adv-x="451" 
d="M280 356q-36 0 -67.5 -11.5t-56 -32.5t-41.5 -50t-23 -65q-4 -27 -3 -50q79 30 157.5 59.5t156.5 59.5q-14 40 -46 65t-77 25zM436 251q-86 -33 -171 -65t-170 -65q12 -45 49 -72.5t90 -27.5q33 0 64 12t57 33q3 -5 6.5 -10t7.5 -10q-30 -25 -65 -39t-74 -14
q-41 0 -74.5 15.5t-56 41.5t-33 61.5t-4.5 76.5q6 44 25 80t48.5 61.5t67.5 39.5t81 14q60 0 100.5 -37t51.5 -95z" />
    <glyph glyph-name="p" unicode="p" horiz-adv-x="525" 
d="M456 187q5 35 -3.5 65.5t-28 53t-48.5 35.5t-64 13t-67.5 -13t-58.5 -35.5t-43 -53t-22 -65.5t3.5 -65.5t28 -53.5t48.5 -36t64 -13t67.5 13t58.5 36t43 53.5t22 65.5zM484 187q-6 -44 -26 -80t-50 -61.5t-68 -39.5t-79 -14q-31 0 -57 8.5t-45.5 23.5t-33 34.5
t-18.5 41.5q-2 -12 -2.5 -24t-2.5 -23l-42 -303h-29l88 625h25q-3 -26 -7 -52t-7 -52q12 22 31 42.5t43.5 35.5t53 24t58.5 9q41 0 74.5 -15.5t56 -41.5t33 -62t4.5 -76z" />
    <glyph glyph-name="aacute" unicode="&#xe1;" horiz-adv-x="551" 
d="M103 188q-5 -35 3.5 -65.5t28 -53t48.5 -35.5t64 -13t67.5 13t58.5 35.5t43.5 53t22.5 65.5t-4 65.5t-28.5 53.5t-48.5 36t-64 13t-67.5 -13t-58.5 -36t-43 -53.5t-22 -65.5zM75 188q6 43 26.5 79t50.5 62t67.5 40t77.5 14q30 0 56 -8.5t46 -23.5t34 -35t20 -42
q3 25 8 50t10 51h21l-52 -375h-25l6 50q2 13 4 25.5t4 26.5q-12 -22 -30.5 -41.5t-43 -34.5t-53 -24t-59.5 -9q-41 0 -74.5 15.5t-56 41.5t-33 61.5t-4.5 76.5zM299 479q27 33 54.5 66.5t54.5 66.5h30q-29 -33 -57.5 -66.5t-56.5 -66.5h-25z" />
    <glyph glyph-name="eacute" unicode="&#xe9;" horiz-adv-x="451" 
d="M280 356q-36 0 -67.5 -11.5t-56 -32.5t-41.5 -50t-23 -65q-4 -27 -3 -50q79 30 157.5 59.5t156.5 59.5q-14 40 -46 65t-77 25zM436 251q-86 -33 -171 -65t-170 -65q12 -45 49 -72.5t90 -27.5q33 0 64 12t57 33q3 -5 6.5 -10t7.5 -10q-30 -25 -65 -39t-74 -14
q-41 0 -74.5 15.5t-56 41.5t-33 61.5t-4.5 76.5q6 44 25 80t48.5 61.5t67.5 39.5t81 14q60 0 100.5 -37t51.5 -95zM288 479q27 33 54.5 66.5t54.5 66.5h30q-29 -33 -57.5 -66.5t-56.5 -66.5h-25z" />
    <glyph glyph-name="iacute" unicode="&#xed;" horiz-adv-x="199" 
d="M103 0h-28l52 375h28zM140 479q27 33 54.5 66.5t54.5 66.5h30q-29 -33 -57.5 -66.5t-56.5 -66.5h-25z" />
    <glyph glyph-name="oacute" unicode="&#xf3;" 
d="M62 188q6 45 25.5 81t49 61.5t67.5 39.5t80 14q41 0 74.5 -15.5t57 -42t34 -62.5t4.5 -76q-6 -46 -26 -82t-50 -61t-68 -38.5t-80 -13.5q-41 0 -74.5 15.5t-56 41.5t-33 61.5t-4.5 76.5zM90 188q-5 -35 4 -65.5t28.5 -53t48 -35.5t63.5 -13q34 0 66.5 12t58.5 34
t43.5 52.5t22.5 68.5q5 35 -4 65.5t-28.5 53.5t-48.5 36t-64 13q-37 0 -69.5 -12t-57.5 -34.5t-41.5 -53.5t-21.5 -68zM295 479q27 33 54.5 66.5t54.5 66.5h30q-29 -33 -57.5 -66.5t-56.5 -66.5h-25z" />
    <glyph glyph-name="uacute" unicode="&#xfa;" horiz-adv-x="529" 
d="M418 -2h-28l7 55l9 45q-27 -48 -75 -76.5t-104 -28.5q-54 0 -81 31t-22 81l38 270h28l-38 -268q-3 -35 17 -60t62 -27q32 0 63 10.5t55.5 29.5t41.5 45.5t21 57.5l30 212h28zM294 479q27 33 54.5 66.5t54.5 66.5h30q-29 -33 -57.5 -66.5t-56.5 -66.5h-25z" />
    <glyph glyph-name="adieresis" unicode="&#xe4;" horiz-adv-x="551" 
d="M103 188q-5 -35 3.5 -65.5t28 -53t48.5 -35.5t64 -13t67.5 13t58.5 35.5t43.5 53t22.5 65.5t-4 65.5t-28.5 53.5t-48.5 36t-64 13t-67.5 -13t-58.5 -36t-43 -53.5t-22 -65.5zM75 188q6 43 26.5 79t50.5 62t67.5 40t77.5 14q30 0 56 -8.5t46 -23.5t34 -35t20 -42
q3 25 8 50t10 51h21l-52 -375h-25l6 50q2 13 4 25.5t4 26.5q-12 -22 -30.5 -41.5t-43 -34.5t-53 -24t-59.5 -9q-41 0 -74.5 15.5t-56 41.5t-33 61.5t-4.5 76.5zM381 504q2 11 10.5 19t19.5 8t18 -8t5 -19t-10.5 -18.5t-19.5 -7.5t-18 7.5t-5 18.5zM216 504q2 11 10.5 19
t19.5 8t18 -8t5 -19t-10.5 -18.5t-19.5 -7.5t-18 7.5t-5 18.5z" />
    <glyph glyph-name="edieresis" unicode="&#xeb;" horiz-adv-x="451" 
d="M280 356q-36 0 -67.5 -11.5t-56 -32.5t-41.5 -50t-23 -65q-4 -27 -3 -50q79 30 157.5 59.5t156.5 59.5q-14 40 -46 65t-77 25zM436 251q-86 -33 -171 -65t-170 -65q12 -45 49 -72.5t90 -27.5q33 0 64 12t57 33q3 -5 6.5 -10t7.5 -10q-30 -25 -65 -39t-74 -14
q-41 0 -74.5 15.5t-56 41.5t-33 61.5t-4.5 76.5q6 44 25 80t48.5 61.5t67.5 39.5t81 14q60 0 100.5 -37t51.5 -95zM350 504q2 11 10.5 19t19.5 8t18 -8t5 -19t-10.5 -18.5t-19.5 -7.5t-18 7.5t-5 18.5zM185 504q2 11 10.5 19t19.5 8t18 -8t5 -19t-10.5 -18.5t-19.5 -7.5
t-18 7.5t-5 18.5z" />
    <glyph glyph-name="odieresis" unicode="&#xf6;" 
d="M62 188q6 45 25.5 81t49 61.5t67.5 39.5t80 14q41 0 74.5 -15.5t57 -42t34 -62.5t4.5 -76q-6 -46 -26 -82t-50 -61t-68 -38.5t-80 -13.5q-41 0 -74.5 15.5t-56 41.5t-33 61.5t-4.5 76.5zM90 188q-5 -35 4 -65.5t28.5 -53t48 -35.5t63.5 -13q34 0 66.5 12t58.5 34
t43.5 52.5t22.5 68.5q5 35 -4 65.5t-28.5 53.5t-48.5 36t-64 13q-37 0 -69.5 -12t-57.5 -34.5t-41.5 -53.5t-21.5 -68zM350 504q2 11 10.5 19t19.5 8t18 -8t5 -19t-10.5 -18.5t-19.5 -7.5t-18 7.5t-5 18.5zM185 504q2 11 10.5 19t19.5 8t18 -8t5 -19t-10.5 -18.5t-19.5 -7.5
t-18 7.5t-5 18.5z" />
    <glyph glyph-name="udieresis" unicode="&#xfc;" horiz-adv-x="529" 
d="M418 -2h-28l7 55l9 45q-27 -48 -75 -76.5t-104 -28.5q-54 0 -81 31t-22 81l38 270h28l-38 -268q-3 -35 17 -60t62 -27q32 0 63 10.5t55.5 29.5t41.5 45.5t21 57.5l30 212h28zM382 504q2 11 10.5 19t19.5 8t18 -8t5 -19t-10.5 -18.5t-19.5 -7.5t-18 7.5t-5 18.5zM217 504
q2 11 10.5 19t19.5 8t18 -8t5 -19t-10.5 -18.5t-19.5 -7.5t-18 7.5t-5 18.5z" />
    <glyph glyph-name="agrave" unicode="&#xe0;" horiz-adv-x="551" 
d="M103 188q-5 -35 3.5 -65.5t28 -53t48.5 -35.5t64 -13t67.5 13t58.5 35.5t43.5 53t22.5 65.5t-4 65.5t-28.5 53.5t-48.5 36t-64 13t-67.5 -13t-58.5 -36t-43 -53.5t-22 -65.5zM75 188q6 43 26.5 79t50.5 62t67.5 40t77.5 14q30 0 56 -8.5t46 -23.5t34 -35t20 -42
q3 25 8 50t10 51h21l-52 -375h-25l6 50q2 13 4 25.5t4 26.5q-12 -22 -30.5 -41.5t-43 -34.5t-53 -24t-59.5 -9q-41 0 -74.5 15.5t-56 41.5t-33 61.5t-4.5 76.5zM250 612q18 -33 35.5 -66.5t35.5 -66.5h-24q-20 33 -38.5 66.5t-36.5 66.5h28z" />
    <glyph glyph-name="egrave" unicode="&#xe8;" horiz-adv-x="451" 
d="M280 356q-36 0 -67.5 -11.5t-56 -32.5t-41.5 -50t-23 -65q-4 -27 -3 -50q79 30 157.5 59.5t156.5 59.5q-14 40 -46 65t-77 25zM436 251q-86 -33 -171 -65t-170 -65q12 -45 49 -72.5t90 -27.5q33 0 64 12t57 33q3 -5 6.5 -10t7.5 -10q-30 -25 -65 -39t-74 -14
q-41 0 -74.5 15.5t-56 41.5t-33 61.5t-4.5 76.5q6 44 25 80t48.5 61.5t67.5 39.5t81 14q60 0 100.5 -37t51.5 -95zM226 612q18 -33 35.5 -66.5t35.5 -66.5h-24q-20 33 -38.5 66.5t-36.5 66.5h28z" />
    <glyph glyph-name="igrave" unicode="&#xec;" horiz-adv-x="174" 
d="M108 0h-28l52 375h28zM88 612q18 -33 35.5 -66.5t35.5 -66.5h-24q-20 33 -38.5 66.5t-36.5 66.5h28z" />
    <glyph glyph-name="ograve" unicode="&#xf2;" 
d="M62 188q6 45 25.5 81t49 61.5t67.5 39.5t80 14q41 0 74.5 -15.5t57 -42t34 -62.5t4.5 -76q-6 -46 -26 -82t-50 -61t-68 -38.5t-80 -13.5q-41 0 -74.5 15.5t-56 41.5t-33 61.5t-4.5 76.5zM90 188q-5 -35 4 -65.5t28.5 -53t48 -35.5t63.5 -13q34 0 66.5 12t58.5 34
t43.5 52.5t22.5 68.5q5 35 -4 65.5t-28.5 53.5t-48.5 36t-64 13q-37 0 -69.5 -12t-57.5 -34.5t-41.5 -53.5t-21.5 -68zM230 612q18 -33 35.5 -66.5t35.5 -66.5h-24q-20 33 -38.5 66.5t-36.5 66.5h28z" />
    <glyph glyph-name="ugrave" unicode="&#xf9;" horiz-adv-x="529" 
d="M418 -2h-28l7 55l9 45q-27 -48 -75 -76.5t-104 -28.5q-54 0 -81 31t-22 81l38 270h28l-38 -268q-3 -35 17 -60t62 -27q32 0 63 10.5t55.5 29.5t41.5 45.5t21 57.5l30 212h28zM268 612q18 -33 35.5 -66.5t35.5 -66.5h-24q-20 33 -38.5 66.5t-36.5 66.5h28z" />
    <glyph glyph-name="comma" unicode="," horiz-adv-x="200" 
d="M148 86q-29 -52 -57.5 -103t-57.5 -103h-26q27 52 53 103t53 103h35z" />
    <glyph glyph-name="period" unicode="." horiz-adv-x="163" 
d="M59 26q2 11 10.5 19t19.5 8t18 -8t5 -19t-10.5 -18.5t-19.5 -7.5t-18 7.5t-5 18.5z" />
    <glyph glyph-name="f" unicode="f" horiz-adv-x="283" 
d="M70 347l4 27h65l20 144q8 55 29.5 98t52 72t68.5 44.5t79 17.5l-4 -27q-34 0 -66.5 -14.5t-59.5 -40.5t-45.5 -63.5t-25.5 -84.5l-20 -146h127l-4 -27h-127l-48 -347h-28l48 347h-65z" />
    <glyph glyph-name="aring" unicode="&#xe5;" horiz-adv-x="551" 
d="M279 540q-2 -19 10 -32.5t30 -13.5q19 0 34.5 13.5t17.5 32.5q3 18 -9 32t-30 14q-19 0 -34.5 -14t-18.5 -32zM257 540q5 29 27 48.5t51 19.5t45.5 -19.5t12.5 -48.5t-26 -48.5t-51 -19.5t-46 19.5t-13 48.5zM103 188q-5 -35 3.5 -65.5t28 -53t48.5 -35.5t64 -13t67.5 13
t58.5 35.5t43.5 53t22.5 65.5t-4 65.5t-28.5 53.5t-48.5 36t-64 13t-67.5 -13t-58.5 -36t-43 -53.5t-22 -65.5zM75 188q6 43 26.5 79t50.5 62t67.5 40t77.5 14q30 0 56 -8.5t46 -23.5t34 -35t20 -42q3 25 8 50t10 51h21l-52 -375h-25l6 50q2 13 4 25.5t4 26.5
q-12 -22 -30.5 -41.5t-43 -34.5t-53 -24t-59.5 -9q-41 0 -74.5 15.5t-56 41.5t-33 61.5t-4.5 76.5z" />
    <glyph glyph-name="v" unicode="v" horiz-adv-x="500" 
d="M252 -23q-37 100 -73 199t-73 199h29q31 -85 63.5 -171.5t61.5 -173.5q53 87 109 173l112 172h28q-64 -100 -128 -199t-129 -199z" />
    <glyph glyph-name="j" unicode="j" horiz-adv-x="225" 
d="M163 504q1 11 10 19t20 8t17.5 -8t4.5 -19t-10.5 -18.5t-19.5 -7.5t-17.5 7.5t-4.5 18.5zM44 -180q-5 5 -9 9.5t-9 9.5q29 26 49 64.5t27 88.5l54 383h28l-53 -381q-8 -58 -31 -101.5t-56 -72.5z" />
    <glyph glyph-name="s" unicode="s" horiz-adv-x="399" 
d="M348 337l-10 -10l-10 -10q-12 17 -34.5 26.5t-44.5 9.5q-12 0 -26 -4t-26.5 -12t-21.5 -22t-12 -33q-4 -26 8.5 -40t32.5 -23t44 -16t43.5 -18.5t31 -30t7.5 -51.5q-2 -18 -11.5 -37.5t-26 -36t-41 -27t-55.5 -10.5q-14 0 -29.5 2.5t-30.5 8t-27.5 14.5t-21.5 22
q5 5 10.5 9.5t11.5 9.5q12 -17 40 -28t54 -11q12 0 28 5t30.5 15t26 25t14.5 36q4 28 -8 43.5t-32 25t-44 16t-44 16.5t-32 27.5t-8 49.5q4 25 16 44t29 32t36.5 19.5t37.5 6.5q21 0 49 -9.5t46 -33.5z" />
    <glyph glyph-name="k" unicode="k" horiz-adv-x="449" 
d="M380 384l15 -18q-43 -35 -81 -67.5t-80 -67.5q34 -58 67.5 -115.5t68.5 -115.5h-33q-32 54 -63.5 106t-63.5 106q-20 -16 -39.5 -32.5t-39.5 -32.5l-20 -147h-27l105 750h27l-80 -567q63 52 122 100.5t122 100.5z" />
    <glyph glyph-name="y" unicode="y" horiz-adv-x="489" 
d="M103 -250h-32q41 62 80 123.5t79 123.5q-34 95 -68 189t-68 189h31q13 -36 29 -81.5t33 -93t33 -93t29 -81.5q23 36 52.5 81.5t59.5 93t59 93t52 81.5h31q-100 -157 -199.5 -312.5t-200.5 -312.5z" />
    <glyph glyph-name="oslash" unicode="&#xf8;" horiz-adv-x="468" 
d="M64 188q-5 -35 3 -64.5t26 -52.5q63 64 125 128t125 128q-17 14 -40 21.5t-49 7.5q-35 0 -67 -13t-58 -36t-43 -53.5t-22 -65.5zM207 21q35 0 67.5 13t58.5 35.5t43.5 53t22.5 65.5q5 38 -6 70t-34 55l-126 -128l-126 -128q41 -36 100 -36zM36 188q6 40 26 76t50 62
t67.5 41.5t78.5 15.5q32 0 59 -9t48 -26q9 10 19 19.5t19 19.5q4 -4 7 -7.5t7 -7.5l-37 -37q27 -26 40 -64.5t7 -82.5q-6 -41 -26.5 -76.5t-50.5 -61.5t-68 -41.5t-79 -15.5q-35 0 -64 11.5t-52 31.5q-12 -12 -23.5 -24t-23.5 -24l-14 14q11 13 23 24.5t24 23.5
q-23 26 -33 61.5t-4 76.5z" />
    <glyph glyph-name="w" unicode="w" horiz-adv-x="772" 
d="M415 278q-9 24 -17.5 48.5t-17.5 48.5h29q30 -86 61.5 -172.5t60.5 -172.5q54 87 109 173t109 172h29q-64 -100 -127.5 -199t-127.5 -199q-24 69 -48.5 136.5t-48.5 136.5q-44 -69 -87.5 -136.5t-87.5 -136.5q-35 100 -70.5 199t-72.5 199h29q30 -86 61.5 -172.5
t60.5 -172.5q38 63 77.5 124.5t78.5 123.5z" />
    <glyph glyph-name="x" unicode="x" horiz-adv-x="403" 
d="M204 190q-27 47 -55 92.5t-55 92.5h35l50 -84t49 -84q37 42 72.5 83.5t71.5 83.5h34q-42 -48 -82.5 -95.5t-81.5 -95.5q28 -46 55 -91.5t55 -91.5h-34q-25 42 -50 83.5t-50 83.5q-36 -42 -71.5 -83.5t-70.5 -83.5h-35q41 48 81 95t82 95z" />
    <glyph glyph-name="z" unicode="z" horiz-adv-x="451" 
d="M174 375h262l-4 -27q-90 -81 -174 -160.5t-175 -160.5h322l-3 -27h-360l3 27q91 81 175 160.5t174 160.5h-220q-31 0 -45.5 10t-10.5 39l2 13h29l-2 -12q-1 -11 4.5 -17t22.5 -6z" />
    <glyph glyph-name="o" unicode="o" 
d="M62 188q6 45 25.5 81t49 61.5t67.5 39.5t80 14q41 0 74.5 -15.5t57 -42t34 -62.5t4.5 -76q-6 -46 -26 -82t-50 -61t-68 -38.5t-80 -13.5q-41 0 -74.5 15.5t-56 41.5t-33 61.5t-4.5 76.5zM90 188q-5 -35 4 -65.5t28.5 -53t48 -35.5t63.5 -13q34 0 66.5 12t58.5 34
t43.5 52.5t22.5 68.5q5 35 -4 65.5t-28.5 53.5t-48.5 36t-64 13q-37 0 -69.5 -12t-57.5 -34.5t-41.5 -53.5t-21.5 -68z" />
    <glyph glyph-name="ae" unicode="&#xe6;" horiz-adv-x="629" 
d="M367 243l-6 -44q45 17 89.5 33.5t89.5 33.5q-14 40 -46 65t-77 25q-33 0 -65 -13q14 -14 17 -39t-2 -61zM329 170h-87h-44.5t-57 -5.5t-51 -20t-26.5 -43.5q-4 -26 6.5 -42t28.5 -25t41 -12t44 -3q22 0 45 4t42 13.5t32.5 27t17.5 44.5zM114 322q-4 5 -8 10.5t-8 10.5
q11 8 27 15.5t34 13t37 8.5t36 3q36 0 61.5 -4t42.5 -14q39 18 85 18q59 0 100 -36.5t52 -95.5q-54 -20 -108 -40.5t-108 -41.5l-3 -20l-3 -19q-5 -34 -15 -56.5t-32 -39.5q15 -6 31 -9.5t35 -3.5q33 0 64.5 12.5t56.5 33.5q4 -6 7 -11t8 -10q-30 -24 -65.5 -38t-74.5 -14
q-49 0 -84 19q-39 -21 -105 -21q-35 0 -63.5 5t-47.5 18t-27.5 33.5t-3.5 52.5q4 28 19.5 46.5t38 30t49.5 16.5t56 5h135l7 46q4 28 2.5 48.5t-13.5 34.5t-36 21t-66 7q-14 0 -30 -3t-31.5 -7.5t-29 -11t-22.5 -12.5z" />
    <glyph glyph-name="A" unicode="A" horiz-adv-x="740" 
d="M418 643l-6 27q-2 -6 -6 -14t-7 -13q-42 -79 -85 -154.5t-88 -153.5h278q-21 78 -42.5 154t-43.5 154zM628 0h-28q-23 77 -44 154t-44 154h-302l-86 -154t-87 -154h-29q103 184 206.5 366t206.5 366z" />
    <glyph glyph-name="idieresis" unicode="&#xef;" horiz-adv-x="271" 
d="M159 0h-28l52 375h28zM261 504q2 11 10.5 19t19.5 8t18 -8t5 -19t-10.5 -18.5t-19.5 -7.5t-18 7.5t-5 18.5zM96 504q2 11 10.5 19t19.5 8t18 -8t5 -19t-10.5 -18.5t-19.5 -7.5t-18 7.5t-5 18.5z" />
    <glyph glyph-name="yacute" unicode="&#xfd;" horiz-adv-x="488" 
d="M103 -250h-32q41 62 80 123.5t79 123.5q-34 95 -68 189t-68 189h31q13 -36 29 -81.5t33 -93t33 -93t29 -81.5q23 36 52.5 81.5t59.5 93t59 93t52 81.5h31q-100 -157 -199.5 -312.5t-200.5 -312.5zM295 479q27 33 54.5 66.5t54.5 66.5h30q-29 -33 -57.5 -66.5t-56.5 -66.5
h-25z" />
    <glyph glyph-name="ydieresis" unicode="&#xff;" horiz-adv-x="488" 
d="M103 -250h-32q41 62 80 123.5t79 123.5q-34 95 -68 189t-68 189h31q13 -36 29 -81.5t33 -93t33 -93t29 -81.5q23 36 52.5 81.5t59.5 93t59 93t52 81.5h31q-100 -157 -199.5 -312.5t-200.5 -312.5zM368 504q2 11 10.5 19t19.5 8t18 -8t5 -19t-10.5 -18.5t-19.5 -7.5
t-18 7.5t-5 18.5zM203 504q2 11 10.5 19t19.5 8t18 -8t5 -19t-10.5 -18.5t-19.5 -7.5t-18 7.5t-5 18.5z" />
    <glyph glyph-name="B" unicode="B" horiz-adv-x="535" 
d="M152 673l-44 -308h140q37 0 69 11.5t56 32.5t40 50.5t21 65.5q5 40 -3.5 68t-28 46t-49 26t-66.5 8h-135zM105 338l-45 -311h141q39 0 74.5 9.5t64 28.5t48 48t24.5 67q5 37 -3.5 63t-25.5 43.5t-39 27.5t-44 15.5t-42 7t-31 1.5h-122zM29 0l99 700h152q46 0 83 -10
t61 -31t34.5 -54.5t3.5 -79.5q-8 -62 -46 -109t-104 -64q29 -6 54.5 -20t43.5 -36t26.5 -51t3.5 -65q-6 -45 -29 -78.5t-56 -56t-73.5 -34t-82.5 -11.5h-170z" />
    <glyph glyph-name="D" unicode="D" horiz-adv-x="652" 
d="M130 700h142q72 0 132.5 -24.5t102 -70t60.5 -110.5t8 -145q-9 -63 -37 -125.5t-80.5 -112.5t-131 -81t-187.5 -31h-108zM154 673q-23 -162 -45.5 -322.5t-45.5 -322.5h92q93 0 163 28t118.5 73t76 103t35.5 118q10 74 -7.5 134t-55.5 102t-93 64.5t-121 22.5h-117z" />
    <glyph glyph-name="E" unicode="E" horiz-adv-x="601" 
d="M40 0l99 700h410l-4 -27h-382l-44 -307h344l-4 -27h-343l-45 -312h397l-4 -27h-424z" />
    <glyph glyph-name="H" unicode="H" horiz-adv-x="700" 
d="M49 0l99 700h28l-48 -334h447l47 334h31q-25 -176 -50.5 -350t-51.5 -350h-28l48 339h-446l-48 -339h-28z" />
    <glyph glyph-name="I" unicode="I" horiz-adv-x="238" 
d="M154 700h28l-99 -700h-28z" />
    <glyph glyph-name="J" unicode="J" horiz-adv-x="302" 
d="M-41 -142l4 27q36 2 68.5 16.5t58.5 41t44 64.5t25 86l86 607h28l-86 -610q-8 -56 -29.5 -98.5t-52 -71.5t-68.5 -45t-78 -17z" />
    <glyph glyph-name="K" unicode="K" horiz-adv-x="600" 
d="M498 0h-36q-65 102 -130 202t-131 202q-27 -23 -54 -45t-54 -45q-11 -79 -21.5 -157.5t-21.5 -156.5h-28l99 700h28l-47 -327q-1 -8 -2.5 -14.5t-2.5 -14.5l20 20q100 85 199.5 168t200.5 168h38q-84 -70 -166 -139t-165 -139q69 -106 137 -211t137 -211z" />
    <glyph glyph-name="M" unicode="M" horiz-adv-x="937" 
d="M151 732q75 -119 149.5 -237.5t149.5 -237.5q109 119 216.5 237.5t216.5 237.5l-103 -732h-28l61 438l25 172q2 11 3.5 21t3.5 21q-100 -113 -200 -223t-202 -222q-56 91 -111 179t-112 179l-45 72l-9 15q-2 -11 -2 -21t-2 -21l-86 -610h-28z" />
    <glyph glyph-name="N" unicode="N" horiz-adv-x="813" 
d="M760 700l-103 -732q-119 168 -237 334.5t-237 335.5q-3 7 -7 13t-8 13q0 -8 -0.5 -16t-0.5 -16l-89 -632h-28l103 732q119 -171 236.5 -337.5t235.5 -336.5q4 -7 8 -13t8 -13q0 8 0.5 16t0.5 16l90 636h28z" />
    <glyph glyph-name="P" unicode="P" horiz-adv-x="455" 
d="M108 362h109q55 0 93.5 15t63 38.5t37.5 51t16 53.5q4 30 -6.5 58t-32.5 49t-54 33.5t-72 12.5h-110zM29 0l99 700h145q30 0 64.5 -10t63 -31.5t45 -56t9.5 -82.5q-12 -85 -74.5 -135t-165.5 -50h-111l-47 -335h-28z" />
    <glyph glyph-name="R" unicode="R" horiz-adv-x="501" 
d="M108 362h109q55 0 93.5 15t63 38.5t37.5 51t16 53.5q4 30 -6.5 58t-32.5 49t-54 33.5t-72 12.5h-110zM29 0l99 700h145q30 0 64.5 -10t63 -31.5t45 -56t9.5 -82.5q-10 -71 -55.5 -118t-121.5 -62q29 -85 56.5 -170t56.5 -170h-30q-29 85 -57 169t-55 169q-21 -3 -42 -3
h-103l-47 -335h-28z" />
    <glyph glyph-name="U" unicode="U" horiz-adv-x="652" 
d="M277 -8q-50 0 -90 15t-66.5 44.5t-37.5 73.5t-3 101l66 474h28l-66 -471q-7 -51 2.5 -90t32.5 -65.5t58.5 -40.5t79.5 -14q43 0 82.5 14t70 40.5t51.5 65.5t28 90l66 471h28l-66 -474q-8 -57 -32 -101t-59.5 -73.5t-79.5 -44.5t-93 -15z" />
    <glyph glyph-name="Y" unicode="Y" horiz-adv-x="638" 
d="M321 263l-37 -263h-32l37 264q-50 109 -99.5 218t-99.5 218h34q44 -97 88.5 -193t87.5 -193l9 -27h1q4 7 7 13.5t7 13.5q72 97 142.5 193t142.5 193h34q-81 -110 -161 -218.5t-161 -218.5z" />
    <glyph glyph-name="asciitilde" unicode="~" horiz-adv-x="489" 
d="M266 494q-13 17 -25 23t-26 6q-8 0 -18 -2t-20.5 -8t-19 -16.5t-12.5 -26.5q-5 1 -10 1t-10 1q4 19 14 32.5t23 22t28 12.5t29 4q20 0 35 -10t29 -27t25.5 -23t25.5 -6q8 0 18.5 2t21 8t19 16.5t12.5 26.5q5 -1 9.5 -1t9.5 -1q-8 -38 -36.5 -54.5t-57.5 -16.5
q-20 0 -35 10t-29 27z" />
    <glyph glyph-name="ntilde" unicode="&#xf1;" horiz-adv-x="523" 
d="M162 375h26l-6 -44q-2 -14 -4 -27t-5 -27q27 48 75 76.5t104 28.5q54 0 81.5 -31t21.5 -81l-37 -270h-28l37 268q4 35 -16 60t-63 27q-32 0 -62.5 -10.5t-55.5 -29.5t-42 -45.5t-21 -57.5l-29 -212h-28zM335 484q-13 17 -25 23t-26 6q-8 0 -18 -2t-20.5 -8t-19 -16.5
t-12.5 -26.5q-5 1 -10 1t-10 1q4 19 14 32.5t23 22t28 12.5t29 4q20 0 35 -10t29 -27t25.5 -23t25.5 -6q8 0 18.5 2t21 8t19 16.5t12.5 26.5q5 -1 9.5 -1t9.5 -1q-8 -38 -36.5 -54.5t-57.5 -16.5q-20 0 -35 10t-29 27z" />
    <glyph glyph-name="F" unicode="F" horiz-adv-x="587" 
d="M40 0l99 700h410l-4 -27h-382l-44 -307h344l-4 -27h-343l-48 -339h-28z" />
    <glyph glyph-name="L" unicode="L" horiz-adv-x="593" 
d="M40 0l99 700h28l-96 -673h397l-4 -27h-424z" />
    <glyph glyph-name="C" unicode="C" horiz-adv-x="670" 
d="M544 65l13 -23q-43 -23 -90.5 -36.5t-98.5 -13.5q-74 0 -135 28t-102.5 76.5t-60.5 113.5t-9 139t47.5 139.5t93 114t124.5 77t143 28.5q51 0 94.5 -13t81.5 -37q-5 -6 -9.5 -11.5t-9.5 -11.5q-69 46 -161 46q-68 0 -131.5 -26.5t-114.5 -71.5t-85.5 -105.5t-44.5 -129.5
q-9 -68 8 -128t55.5 -104.5t94 -70.5t122.5 -26q47 0 91 12t84 34z" />
    <glyph glyph-name="Q" unicode="Q" horiz-adv-x="842" 
d="M89 348q-9 -68 8 -128t55.5 -104.5t94 -70.5t122.5 -26q69 0 133 26t116 71t87 105t44 128q10 68 -7.5 128.5t-56.5 105.5t-95.5 71.5t-124.5 26.5t-131.5 -26.5t-114.5 -71.5t-85.5 -105.5t-44.5 -129.5zM61 349q10 74 47.5 139.5t93 114t124.5 77t143 28.5t135.5 -28.5
t103.5 -77t60.5 -114t8.5 -139.5q-8 -54 -30.5 -104t-56.5 -91.5t-78 -74t-93 -52.5h235l-4 -27h-307q-38 -8 -75 -8q-74 0 -135 28t-102.5 76.5t-60.5 113.5t-9 139z" />
    <glyph glyph-name="T" unicode="T" horiz-adv-x="553" 
d="M602 700l-4 -27h-263l-95 -673h-28l96 673h-263l4 27h553z" />
    <glyph glyph-name="guilsinglleft" unicode="&#x2039;" horiz-adv-x="392" 
d="M265 77l-148 162q48 41 96.5 80.5t96.5 80.5l-4 -33q-36 -32 -72.5 -64t-72.5 -64q27 -33 54 -65.5t54 -64.5z" />
    <glyph glyph-name="greater" unicode="&#x3e;" horiz-adv-x="650" 
d="M79 -15l5 36q103 54 204.5 108.5t204.5 108.5q-88 54 -174 108.5t-174 108.5l5 36q101 -63 201 -126.5t202 -126.5q-119 -63 -237 -126.5t-237 -126.5z" />
    <glyph glyph-name="less" unicode="&#x3c;" horiz-adv-x="680" 
d="M522 21l-5 -36q-101 63 -201 126.5t-201 126.5q118 63 236 126.5t237 126.5l-5 -36q-102 -54 -203.5 -108.5t-204.5 -108.5q87 -54 173 -108.5t174 -108.5z" />
    <glyph glyph-name="equal" unicode="=" horiz-adv-x="708" 
d="M594 170l-4 -28h-506l4 28h506zM621 364l-4 -28h-506l4 28h506z" />
    <glyph glyph-name="at" unicode="@" horiz-adv-x="990" 
d="M321 188q-5 -35 3.5 -65.5t28 -53t48.5 -35.5t64 -13t67.5 13t58.5 35.5t43 53t22 65.5t-3.5 65.5t-28 53.5t-48.5 36t-64 13t-67.5 -13t-58.5 -36t-43 -53.5t-22 -65.5zM889 188q-11 -58 -29.5 -94.5t-42 -57.5t-50 -28.5t-51.5 -7.5h-84l7 47q2 14 4 27.5t4 27.5
q-12 -23 -31 -42.5t-43 -34t-52.5 -23.5t-59.5 -9q-41 0 -74.5 15.5t-56 41.5t-33 61.5t-4.5 76.5q6 40 26 75.5t50 62t68 42t79 15.5q30 0 55.5 -8.5t45.5 -23.5t33.5 -35t19.5 -42q4 25 9 50t10 51h22l-49 -348h63q51 0 86.5 38t49.5 123q11 78 -8.5 146t-63 119
t-107.5 80.5t-141 29.5q-78 0 -150 -29.5t-129.5 -80.5t-96.5 -119t-50 -146q-11 -77 9 -145t63.5 -118.5t107.5 -80t141 -29.5q61 0 118.5 19t108.5 51q3 -6 7 -11t7 -10q-54 -36 -116.5 -56t-128.5 -20q-83 0 -151.5 31.5t-115 86t-68 127.5t-9.5 156t53.5 156
t103.5 127.5t139.5 86t160.5 31.5t151.5 -31.5t115 -86t68 -127.5t9.5 -157z" />
    <glyph glyph-name="question" unicode="?" horiz-adv-x="452" 
d="M87 587l-12 4l-12 4q13 27 33.5 52t47 44t58.5 30t68 11q41 0 75 -15.5t56.5 -42t33 -62t4.5 -75.5q-8 -54 -40 -95t-82 -73q-20 -14 -38 -23.5t-32.5 -22t-24.5 -31t-15 -50.5l-11 -78h-28l14 97q4 31 18 50t34.5 34t45.5 28.5t52 34.5q35 27 54.5 59.5t24.5 69.5
q5 36 -3.5 66.5t-28 53t-48.5 35.5t-64 13q-59 0 -107.5 -32t-72.5 -86zM162 20q-9 0 -16 7.5t-5 18.5q1 12 10 19.5t18 7.5q10 0 17.5 -7.5t5.5 -19.5q-2 -11 -11 -18.5t-19 -7.5z" />
    <glyph glyph-name="exclam" unicode="!" horiz-adv-x="201" 
d="M48 29q-10 0 -16.5 7.5t-5.5 18.5q1 12 10.5 19.5t18.5 7.5q11 0 17.5 -7.5t5.5 -19.5q-2 -11 -11 -18.5t-19 -7.5v0zM135 750h28l-82 -584h-28z" />
    <glyph glyph-name="two" unicode="2" horiz-adv-x="500" 
d="M79 27h336l-4 -27h-405q73 62 141.5 122t123 117t90 110t42.5 100q7 52 -3 87t-30 56t-45.5 30t-49.5 9q-47 0 -80 -17t-54 -41.5t-31.5 -53.5t-14.5 -53q-9 -69 25 -112q-5 -5 -10 -8.5t-10 -7.5q-20 23 -29 55.5t-4 72.5q6 40 23 75t44 61t63.5 41t81.5 15
q40 0 71.5 -15t51.5 -41.5t28 -62.5t2 -78q-8 -56 -42.5 -111.5t-84.5 -109.5t-109.5 -107.5t-116.5 -105.5z" />
    <glyph glyph-name="one" unicode="1" horiz-adv-x="254" 
d="M75 623l4 27h132l-91 -650h-28l87 623h-104z" />
    <glyph glyph-name="three" unicode="3" horiz-adv-x="515" 
d="M177 354q60 68 118 134.5t118 133.5h-268l4 28h321q-56 -63 -111.5 -124.5t-111.5 -124.5q43 -1 78.5 -16.5t60 -42.5t36 -64t5.5 -80t-28 -80.5t-54 -65.5t-72 -44t-83 -16q-45 0 -81 18t-60 49q5 5 11.5 11t11.5 11q19 -27 50 -44.5t70 -17.5q37 0 72 14.5t63.5 39
t47.5 57t24 68.5q5 37 -5 69.5t-31.5 56.5t-52.5 38t-68 14q-17 0 -33.5 -6t-31.5 -16z" />
    <glyph glyph-name="four" unicode="4" horiz-adv-x="510" 
d="M409 576q-83 -92 -165.5 -183t-166.5 -183h281zM16 183q109 119 216.5 237.5t216.5 237.5l-63 -448h97l-4 -27h-97l-26 -183h-28l26 183h-338z" />
    <glyph glyph-name="five" unicode="5" horiz-adv-x="543" 
d="M144 331l45 319h287l-4 -27h-259l-34 -241q21 8 42.5 13.5t43.5 5.5q43 0 78.5 -16t60 -43.5t36 -64.5t5.5 -79q-6 -43 -28 -80.5t-54 -65.5t-72.5 -44t-82.5 -16t-76 15t-58 42q6 5 11.5 9.5t12.5 9.5q20 -23 48.5 -36t63.5 -13q37 0 72.5 14.5t63.5 39t47 57t24 68.5
t-5 68t-31 56t-52.5 37.5t-68.5 13.5q-35 0 -65.5 -11.5t-50.5 -30.5z" />
    <glyph glyph-name="six" unicode="6" horiz-adv-x="520" 
d="M61 196q-6 -37 3.5 -69t30 -56t51 -38t67.5 -14t72 14t63 38t47 56t24 69t-5 69t-31 56t-52 38t-68 14t-71 -14t-61.5 -38t-46 -56t-23.5 -69zM33 194q10 72 49.5 134.5t95 117t121 101t127.5 87.5q4 -6 7.5 -12t7.5 -11q-131 -80 -207.5 -152t-108.5 -123q27 29 64 47
t79 18q43 0 78.5 -16t59.5 -44t35.5 -65.5t5.5 -79.5t-28 -79t-54 -65t-72 -44t-83 -16q-42 0 -77.5 16t-59.5 43t-35 64t-5 79z" />
    <glyph glyph-name="seven" unicode="7" 
d="M55 622l4 28h403q-96 -164 -191.5 -325t-191.5 -325h-33q93 156 184 311t184 311h-359z" />
    <glyph glyph-name="eight" unicode="8" horiz-adv-x="510" 
d="M159 508q-3 -23 3.5 -42.5t20.5 -33.5t35 -22t46 -8q51 0 88.5 30t44.5 76q3 25 -3 47t-19.5 39t-33.5 27t-45 10t-48.5 -10t-42 -27t-31 -39t-15.5 -47zM59 198q-5 -36 4.5 -68.5t29.5 -57t50 -39t67 -14.5t72 14.5t63 39t47 57t24 68.5t-4.5 68t-31 56t-52.5 37.5
t-68 13.5t-71 -13.5t-61 -37.5t-45 -56t-24 -68zM31 198q5 34 20 64.5t37 55.5t50.5 43.5t60.5 27.5q-35 15 -54.5 48.5t-12.5 76.5q4 30 19 56t37.5 45.5t51 31t58.5 11.5q31 0 56 -11.5t42.5 -31.5t25 -47t3.5 -57q-6 -42 -33.5 -74t-66.5 -48q30 -9 54.5 -27t40.5 -43
t22.5 -56t1.5 -65q-6 -43 -27.5 -80.5t-54 -65.5t-72.5 -44t-82 -16t-77.5 16t-59.5 44t-35 65.5t-5 80.5z" />
    <glyph glyph-name="colon" unicode=":" horiz-adv-x="175" 
d="M76 276q2 11 10.5 19t19.5 8t17.5 -8t4.5 -19q-1 -11 -10 -18.5t-20 -7.5t-17.5 7.5t-4.5 18.5zM41 26q1 11 10 19t20 8t17.5 -8t4.5 -19t-10.5 -18.5t-19.5 -7.5t-17.5 7.5t-4.5 18.5z" />
    <glyph glyph-name="semicolon" unicode=";" horiz-adv-x="201" 
d="M109 276q2 11 10.5 19t19.5 8q10 0 17 -8t6 -19q-2 -11 -11 -18.5t-19 -7.5q-11 0 -18 7.5t-5 18.5zM118 86q-29 -52 -57 -103t-57 -103h-26q26 52 52 103t53 103h35z" />
    <glyph glyph-name="quotedbl" unicode="&#x22;" horiz-adv-x="301" 
d="M178 472l35 248h31q-10 -63 -19.5 -124t-19.5 -124h-27zM45 472l35 248h31q-10 -63 -19.5 -124t-19.5 -124h-27z" />
    <glyph glyph-name="numbersign" unicode="#" horiz-adv-x="571" 
d="M201 400q-11 -39 -20.5 -77.5t-19.5 -77.5h156q10 39 19.5 77.5t20.5 77.5h-156zM253 0q14 55 28 109t28 109h-156q-14 -55 -28 -109t-28 -109h-28q14 55 28 109t28 109h-112q2 7 3.5 13.5t3.5 13.5h113q10 39 19.5 77.5t20.5 77.5h-111q1 7 2.5 13.5t3.5 13.5h112
l57 216h28l-57 -216h156l57 216h28l-57 -216h129l-6 -27h-130q-11 -39 -20.5 -77.5t-19.5 -77.5h128q-2 -7 -3.5 -13.5t-3.5 -13.5h-129q-14 -55 -28 -109t-28 -109h-28z" />
    <glyph glyph-name="percent" unicode="%" horiz-adv-x="726" 
d="M416 112q-2 -18 2.5 -33.5t14.5 -27t24.5 -18t32.5 -6.5t34.5 6.5t30 18t22 27t11.5 33.5q4 35 -17.5 60t-56.5 25q-18 0 -34.5 -6.5t-30 -18t-22 -27t-11.5 -33.5zM486 0q-23 0 -42.5 9t-33 24t-19.5 35.5t-3 44.5q4 23 16 43.5t29.5 35.5t39.5 23.5t45 8.5t42.5 -8.5
t33 -23.5t19.5 -35.5t3 -43.5q-3 -24 -15.5 -44.5t-30 -35.5t-39.5 -24t-45 -9zM151 388q-2 -18 2.5 -33t14.5 -26.5t24.5 -18t32.5 -6.5t34.5 6.5t30 18t22 26.5t11.5 33q4 35 -17.5 60t-56.5 25q-18 0 -34.5 -6.5t-30 -18t-22 -27t-11.5 -33.5zM221 276q-23 0 -42.5 9
t-33 24t-19.5 35.5t-3 44.5q3 23 15 43.5t30 35.5t40 24t45 9t42 -9t32.5 -24t20 -35.5t3.5 -43.5q-4 -24 -16 -44.5t-30 -35.5t-39.5 -24t-44.5 -9zM165 0q93 126 184.5 250t184.5 250h31q-93 -126 -184.5 -250t-184.5 -250h-31z" />
    <glyph glyph-name="quoteright" unicode="&#x2019;" horiz-adv-x="164" 
d="M57 571q-5 10 -11 19q24 20 37.5 49.5t11.5 64.5q7 2 14 3.5t13 3.5q3 -40 -14.5 -77t-50.5 -63z" />
    <glyph glyph-name="parenleft" unicode="(" horiz-adv-x="400" 
d="M141 292q10 75 33.5 143t55 126t67.5 105.5t72 80.5q3 -6 6.5 -11.5t7.5 -11.5q-33 -33 -67 -78t-63.5 -100t-51.5 -119t-32 -135t-6 -135t18 -119t35.5 -100t45.5 -78q-5 -6 -10 -11.5t-10 -11.5q-27 33 -50 80.5t-38 105.5t-19.5 126t6.5 143z" />
    <glyph glyph-name="parenright" unicode=")" horiz-adv-x="400" 
d="M286 291q-11 -75 -34.5 -143t-55 -126t-67.5 -105.5t-72 -80.5q-4 6 -7.5 11.5t-6.5 11.5q33 33 67 78t63.5 100t51.5 119t32 135t6 135t-18 119t-35.5 100t-45.5 78q5 6 10 11.5t10 11.5q27 -33 50 -80.5t38 -105.5t19.5 -126t-5.5 -143z" />
    <glyph glyph-name="asterisk" unicode="*" horiz-adv-x="335" 
d="M195 575q23 -14 47 -29t47 -29q-5 -7 -10 -13.5t-10 -13.5l-93 60q-5 -29 -9 -58t-9 -58h-27l16 116q-27 -15 -54 -29.5t-54 -28.5q-3 7 -5.5 13.5t-5.5 13.5l108 57q-23 15 -45.5 30t-45.5 30q3 6 7.5 12t8.5 12q23 -15 47 -30t47 -30l17 120h31q-5 -30 -9.5 -60
t-9.5 -60q57 29 112 59q3 -6 5.5 -12t4.5 -12z" />
    <glyph glyph-name="plus" unicode="+" horiz-adv-x="543" 
d="M226 51l24 167h-166l4 27h166l23 166h28l-23 -166h166l-4 -27h-166l-24 -167h-28z" />
    <glyph glyph-name="nine" unicode="9" horiz-adv-x="525" 
d="M451 429q5 37 -4 69t-30 56t-51.5 38t-67.5 14t-72 -14t-62.5 -38t-46.5 -56t-24 -69t4.5 -69t30.5 -56t52 -38t68 -14t71.5 14t62 38t46 56t23.5 69zM478 429q-10 -72 -49.5 -134t-95.5 -116t-121.5 -100.5t-126.5 -86.5q-3 5 -7 11.5t-8 11.5q132 80 208.5 152
t108.5 123q-28 -30 -65 -47.5t-79 -17.5q-43 0 -78.5 16t-59.5 44t-35 65t-5 79t27.5 79.5t53.5 65.5t72 44t83 16t78.5 -16t59.5 -44t34.5 -65.5t4.5 -79.5z" />
    <glyph glyph-name="bar" unicode="|" horiz-adv-x="229" 
d="M31 -232l131 932h28l-131 -932h-28z" />
    <glyph glyph-name="braceleft" unicode="{" horiz-adv-x="282" 
d="M27 281l5 35q25 1 42.5 14.5t29 33.5t17.5 43.5t9 43.5l25 177q6 46 17 70t25.5 34.5t31 12t34.5 1.5h43l-4 -27h-55q-31 0 -44.5 -24.5t-21.5 -86.5l-21 -145q-6 -44 -16 -72.5t-21.5 -46.5t-25 -28t-26.5 -17q12 -7 22 -17.5t17 -29t8.5 -46.5t-4.5 -71l-21 -146
q-8 -61 -1 -85.5t38 -24.5h54l-3 -27h-43q-20 0 -37 1.5t-27.5 15t-13 43.5t5.5 87l21 147q3 20 3 43.5t-6 43.5t-19.5 33.5t-37.5 14.5z" />
    <glyph glyph-name="braceright" unicode="}" horiz-adv-x="320" 
d="M292 316l-5 -35q-30 -2 -49 -21t-30 -45t-16 -53t-7 -45l-21 -147q-6 -46 -17.5 -70.5t-25.5 -35t-30.5 -11.5t-34.5 -1h-42l3 27h55q31 0 44.5 24.5t21.5 85.5l26 176q4 33 14 56t22 38.5t25 24.5t23 15q-12 7 -22 17t-17 28t-8 46.5t5 72.5l20 145q8 62 1 86.5
t-38 24.5h-54l3 27h43q18 0 34.5 -1t27.5 -11.5t15.5 -35t-1.5 -70.5l-21 -148q-3 -18 -5.5 -45.5t1 -53t17 -45t43.5 -20.5z" />
    <glyph glyph-name="zero" unicode="0" horiz-adv-x="616" 
d="M36 327q8 53 31.5 111.5t63.5 107.5t95.5 80.5t127.5 31.5q70 0 116 -32.5t71.5 -81.5t32 -107.5t-1.5 -112.5q-10 -71 -40.5 -131.5t-74 -105t-96.5 -69.5t-107 -25t-98.5 26t-74.5 70.5t-42.5 105.5t-2.5 132zM65 328q-10 -69 2 -125.5t39.5 -97t67.5 -63t86 -22.5
t92.5 21.5t85.5 61.5t67.5 96t38.5 124q10 66 0.5 122t-35 97.5t-66.5 65t-94 23.5t-100.5 -22.5t-85 -63t-63.5 -96t-35 -121.5z" />
    <glyph glyph-name="hyphen" unicode="-" horiz-adv-x="300" 
d="M51 177l3 27h184l-3 -27h-184z" />
    <glyph glyph-name="slash" unicode="/" horiz-adv-x="334" 
d="M-36 -19q97 190 192 377.5t192 377.5h28q-97 -190 -192 -377.5t-192 -377.5h-28z" />
    <glyph glyph-name="backslash" unicode="\" horiz-adv-x="333" 
d="M97 736q43 -190 85.5 -377.5t85.5 -377.5h-30q-43 190 -85.5 377.5t-85.5 377.5h30z" />
    <glyph glyph-name="G" unicode="G" horiz-adv-x="678" 
d="M404 273l3 27h130q30 0 42 -9.5t8 -38.5l-30 -210q-43 -23 -90.5 -36.5t-98.5 -13.5q-74 0 -135 28t-102.5 76.5t-60.5 113.5t-9 139t47.5 139.5t93 114t124.5 77t143 28.5q51 0 94.5 -13t81.5 -37q-5 -6 -9.5 -11.5t-9.5 -11.5q-69 46 -161 46q-68 0 -131.5 -26.5
t-114.5 -71.5t-85.5 -105.5t-44.5 -129.5q-9 -68 8 -128t55.5 -104.5t94 -70.5t122.5 -26q85 0 162 40l19 133l8 57q2 11 -3 17.5t-21 6.5h-130z" />
    <glyph glyph-name="V" unicode="V" horiz-adv-x="722" 
d="M696 700h29q-103 -184 -206.5 -366t-206.5 -366l-207 732h29q45 -161 90.5 -321.5t91.5 -321.5q1 -7 2 -13.5t3 -13.5q3 7 6 13.5t7 13.5q91 161 181 321.5t181 321.5z" />
    <glyph glyph-name="S" unicode="S" horiz-adv-x="548" 
d="M467 644q-5 -5 -9 -10.5t-9 -10.5q-8 8 -19.5 17.5t-27.5 17.5t-37.5 13.5t-48.5 5.5q-37 0 -66.5 -13t-51 -34t-34.5 -48t-17 -55q-4 -30 2 -51t21 -36t37.5 -26.5t50.5 -21.5q30 -11 68 -23.5t70.5 -35t52 -57.5t12.5 -90q-6 -44 -28 -80t-54.5 -61.5t-73 -39
t-83.5 -13.5q-39 0 -70 10.5t-54 25t-38.5 30t-23.5 26.5l21 19q13 -15 28.5 -30t35.5 -27t45 -19.5t57 -7.5q36 0 71 12t64 33.5t49 51.5t25 67q7 46 -8.5 76.5t-43.5 50.5t-62.5 32t-65.5 22q-22 8 -47 19t-45.5 28t-32.5 42.5t-9 63.5q3 33 17 66.5t39.5 60.5t62.5 43.5
t85 16.5q38 0 74 -13t71 -47z" />
    <glyph glyph-name="Z" unicode="Z" horiz-adv-x="700" 
d="M255 700h454l-4 -27q-147 -162 -292 -323t-293 -323h523l-3 -27h-559l3 27q147 162 292 323t293 323h-414q-31 0 -45.5 10t-10.5 39l2 13h29l-2 -12q-2 -11 4 -17t23 -6z" />
    <glyph glyph-name="W" unicode="W" horiz-adv-x="1108" 
d="M1069 700h28q-103 -184 -206.5 -366t-206.5 -366l-118 417q-2 6 -3 12.5t-3 12.5q-59 -111 -122 -221.5t-126 -220.5l-207 732h29q45 -161 89.5 -321.5t92.5 -321.5q1 -7 2 -13.5t3 -13.5q51 105 111.5 206.5t117.5 204.5q-19 66 -36.5 129.5t-36.5 129.5h29
q45 -161 89.5 -321.5t92.5 -321.5q2 -7 2.5 -13.5t2.5 -13.5q3 7 6.5 13.5t6.5 13.5q91 161 181.5 321.5t181.5 321.5z" />
    <glyph glyph-name="X" unicode="X" horiz-adv-x="700" 
d="M324 359q-43 86 -86 171l-86 170h33q39 -77 78 -153l78 -152q2 -4 3.5 -8t3.5 -8q3 4 5.5 8t5.5 8q60 76 119.5 152t119.5 153h33l-270 -345q45 -90 90.5 -177.5t90.5 -177.5h-34l-141 275q-8 14 -15 30.5t-15 30.5q-5 -9 -11 -16q-63 -81 -125 -160t-125 -160h-33
q71 91 140.5 180t140.5 179z" />
    <glyph glyph-name="AE" unicode="&#xc6;" horiz-adv-x="790" 
d="M356 333l43 309q-39 -79 -84 -155t-88 -154h129zM10 0q100 176 197.5 350t197.5 350h329l-4 -27h-298l-44 -307h260l-4 -27h-259l-45 -312h313l-4 -27h-340l43 306h-140q-44 -77 -86.5 -153t-86.5 -153h-29z" />
    <glyph glyph-name="Ntilde" unicode="&#xd1;" horiz-adv-x="813" 
d="M760 700l-103 -732q-119 168 -237 334.5t-237 335.5q-3 7 -7 13t-8 13q0 -8 -0.5 -16t-0.5 -16l-89 -632h-28l103 732q119 -171 236.5 -337.5t235.5 -336.5q4 -7 8 -13t8 -13q0 8 0.5 16t0.5 16l90 636h28zM470 787q-13 17 -25 23t-26 6q-8 0 -18 -2t-20.5 -8t-19 -16.5
t-12.5 -26.5q-5 1 -10 1t-10 1q4 19 14 32.5t23 22t28 12.5t29 4q20 0 35 -10t29 -27t25.5 -23t25.5 -6q8 0 18.5 2t21 8t19 16.5t12.5 26.5q5 -1 9.5 -1t9.5 -1q-8 -38 -36.5 -54.5t-57.5 -16.5q-20 0 -35 10t-29 27z" />
    <glyph glyph-name="Aring" unicode="&#xc5;" horiz-adv-x="740" 
d="M394 835q-2 -19 9.5 -32.5t29.5 -13.5q19 0 34.5 13.5t18.5 32.5q2 18 -10 31.5t-30 13.5q-19 0 -34.5 -13.5t-17.5 -31.5zM372 835q4 29 26 48.5t51 19.5t46 -19.5t13 -48.5q-5 -29 -27 -48.5t-51 -19.5t-46 19.5t-12 48.5zM418 643l-6 27q-2 -6 -6 -14t-7 -13
q-42 -79 -85 -154.5t-88 -153.5h278q-21 78 -42.5 154t-43.5 154zM628 0h-28q-23 77 -44 154t-44 154h-302l-86 -154t-87 -154h-29q103 184 206.5 366t206.5 366z" />
    <glyph glyph-name="Aacute" unicode="&#xc1;" horiz-adv-x="740" 
d="M418 643l-6 27q-2 -6 -6 -14t-7 -13q-42 -79 -85 -154.5t-88 -153.5h278q-21 78 -42.5 154t-43.5 154zM628 0h-28q-23 77 -44 154t-44 154h-302l-86 -154t-87 -154h-29q103 184 206.5 366t206.5 366zM409 750q27 33 54.5 66.5t54.5 66.5h30q-29 -33 -57.5 -66.5
t-56.5 -66.5h-25z" />
    <glyph glyph-name="Eacute" unicode="&#xc9;" horiz-adv-x="601" 
d="M40 0l99 700h410l-4 -27h-382l-44 -307h344l-4 -27h-343l-45 -312h397l-4 -27h-424zM316 750q27 33 54.5 66.5t54.5 66.5h30q-29 -33 -57.5 -66.5t-56.5 -66.5h-25z" />
    <glyph glyph-name="Iacute" unicode="&#xcd;" horiz-adv-x="236" 
d="M154 700h28l-99 -700h-28zM156 750q27 33 54.5 66.5t54.5 66.5h30q-29 -33 -57.5 -66.5t-56.5 -66.5h-25z" />
    <glyph glyph-name="Oacute" unicode="&#xd3;" horiz-adv-x="840" 
d="M61 349q10 74 47.5 139.5t93 114t124.5 77t143 28.5t135.5 -28.5t103.5 -77t60.5 -114t8.5 -139.5t-47.5 -139t-93 -113.5t-125 -76.5t-143.5 -28t-135 28t-102.5 76.5t-60.5 113.5t-9 139zM89 348q-9 -68 8 -128t55.5 -104.5t94 -70.5t123.5 -26t132.5 26t116 71
t86.5 105t44 128q10 68 -7.5 128.5t-56.5 105.5t-95.5 71.5t-124.5 26.5t-131.5 -26.5t-114.5 -71.5t-85.5 -105.5t-44.5 -129.5zM468 750q27 33 54.5 66.5t54.5 66.5h30q-29 -33 -57.5 -66.5t-56.5 -66.5h-25z" />
    <glyph glyph-name="Uacute" unicode="&#xda;" horiz-adv-x="652" 
d="M279 -8q-50 0 -90 15t-66.5 44.5t-37.5 73.5t-3 101l66 474h28l-66 -471q-7 -51 2.5 -90t32.5 -65.5t58.5 -40.5t79.5 -14q43 0 82.5 14t70 40.5t51.5 65.5t28 90l66 471h28l-66 -474q-8 -57 -32 -101t-59.5 -73.5t-79.5 -44.5t-93 -15zM364 750q27 33 54.5 66.5
t54.5 66.5h30q-29 -33 -57.5 -66.5t-56.5 -66.5h-25z" />
    <glyph glyph-name="Adieresis" unicode="&#xc4;" horiz-adv-x="740" 
d="M418 643l-6 27q-2 -6 -6 -14t-7 -13q-42 -79 -85 -154.5t-88 -153.5h278q-21 78 -42.5 154t-43.5 154zM628 0h-28q-23 77 -44 154t-44 154h-302l-86 -154t-87 -154h-29q103 184 206.5 366t206.5 366zM487 794q2 11 10.5 19t19.5 8t18 -8t5 -19t-10.5 -18.5t-19.5 -7.5
t-18 7.5t-5 18.5zM322 794q2 11 10.5 19t19.5 8t18 -8t5 -19t-10.5 -18.5t-19.5 -7.5t-18 7.5t-5 18.5z" />
    <glyph glyph-name="Edieresis" unicode="&#xcb;" horiz-adv-x="601" 
d="M40 0l99 700h410l-4 -27h-382l-44 -307h344l-4 -27h-343l-45 -312h397l-4 -27h-424zM414 794q2 11 10.5 19t19.5 8t18 -8t5 -19t-10.5 -18.5t-19.5 -7.5t-18 7.5t-5 18.5zM249 794q2 11 10.5 19t19.5 8t18 -8t5 -19t-10.5 -18.5t-19.5 -7.5t-18 7.5t-5 18.5z" />
    <glyph glyph-name="Idieresis" unicode="&#xcf;" horiz-adv-x="236" 
d="M154 700h28l-99 -700h-28zM227 794q2 11 10.5 19t19.5 8t18 -8t5 -19t-10.5 -18.5t-19.5 -7.5t-18 7.5t-5 18.5zM62 794q2 11 10.5 19t19.5 8t18 -8t5 -19t-10.5 -18.5t-19.5 -7.5t-18 7.5t-5 18.5z" />
    <glyph glyph-name="Odieresis" unicode="&#xd6;" horiz-adv-x="839" 
d="M61 349q10 74 47.5 139.5t93 114t124.5 77t143 28.5t135.5 -28.5t103.5 -77t60.5 -114t8.5 -139.5t-47.5 -139t-93 -113.5t-125 -76.5t-143.5 -28t-135 28t-102.5 76.5t-60.5 113.5t-9 139zM89 348q-9 -68 8 -128t55.5 -104.5t94 -70.5t123.5 -26t132.5 26t116 71
t86.5 105t44 128q10 68 -7.5 128.5t-56.5 105.5t-95.5 71.5t-124.5 26.5t-131.5 -26.5t-114.5 -71.5t-85.5 -105.5t-44.5 -129.5zM527 794q2 11 10.5 19t19.5 8t18 -8t5 -19t-10.5 -18.5t-19.5 -7.5t-18 7.5t-5 18.5zM362 794q2 11 10.5 19t19.5 8t18 -8t5 -19t-10.5 -18.5
t-19.5 -7.5t-18 7.5t-5 18.5z" />
    <glyph glyph-name="Udieresis" unicode="&#xdc;" horiz-adv-x="652" 
d="M279 -8q-50 0 -90 15t-66.5 44.5t-37.5 73.5t-3 101l66 474h28l-66 -471q-7 -51 2.5 -90t32.5 -65.5t58.5 -40.5t79.5 -14q43 0 82.5 14t70 40.5t51.5 65.5t28 90l66 471h28l-66 -474q-8 -57 -32 -101t-59.5 -73.5t-79.5 -44.5t-93 -15zM452 794q2 11 10.5 19t19.5 8
t18 -8t5 -19t-10.5 -18.5t-19.5 -7.5t-18 7.5t-5 18.5zM287 794q2 11 10.5 19t19.5 8t18 -8t5 -19t-10.5 -18.5t-19.5 -7.5t-18 7.5t-5 18.5z" />
    <glyph glyph-name="Agrave" unicode="&#xc0;" horiz-adv-x="740" 
d="M418 643l-6 27q-2 -6 -6 -14t-7 -13q-42 -79 -85 -154.5t-88 -153.5h278q-21 78 -42.5 154t-43.5 154zM628 0h-28q-23 77 -44 154t-44 154h-302l-86 -154t-87 -154h-29q103 184 206.5 366t206.5 366zM364 883q18 -33 35.5 -66.5t35.5 -66.5h-24q-20 33 -38.5 66.5
t-36.5 66.5h28z" />
    <glyph glyph-name="Egrave" unicode="&#xc8;" horiz-adv-x="601" 
d="M40 0l99 700h410l-4 -27h-382l-44 -307h344l-4 -27h-343l-45 -312h397l-4 -27h-424zM281 883q18 -33 35.5 -66.5t35.5 -66.5h-24q-20 33 -38.5 66.5t-36.5 66.5h28z" />
    <glyph glyph-name="Igrave" unicode="&#xcc;" horiz-adv-x="236" 
d="M154 700h28l-99 -700h-28zM109 883q18 -33 35.5 -66.5t35.5 -66.5h-24q-20 33 -38.5 66.5t-36.5 66.5h28z" />
    <glyph glyph-name="Ograve" unicode="&#xd2;" horiz-adv-x="839" 
d="M61 349q10 74 47.5 139.5t93 114t124.5 77t143 28.5t135.5 -28.5t103.5 -77t60.5 -114t8.5 -139.5t-47.5 -139t-93 -113.5t-125 -76.5t-143.5 -28t-135 28t-102.5 76.5t-60.5 113.5t-9 139zM89 348q-9 -68 8 -128t55.5 -104.5t94 -70.5t123.5 -26t132.5 26t116 71
t86.5 105t44 128q10 68 -7.5 128.5t-56.5 105.5t-95.5 71.5t-124.5 26.5t-131.5 -26.5t-114.5 -71.5t-85.5 -105.5t-44.5 -129.5zM407 883q18 -33 35.5 -66.5t35.5 -66.5h-24q-20 33 -38.5 66.5t-36.5 66.5h28z" />
    <glyph glyph-name="Ugrave" unicode="&#xd9;" horiz-adv-x="652" 
d="M279 -8q-50 0 -90 15t-66.5 44.5t-37.5 73.5t-3 101l66 474h28l-66 -471q-7 -51 2.5 -90t32.5 -65.5t58.5 -40.5t79.5 -14q43 0 82.5 14t70 40.5t51.5 65.5t28 90l66 471h28l-66 -474q-8 -57 -32 -101t-59.5 -73.5t-79.5 -44.5t-93 -15zM312 883q18 -33 35.5 -66.5
t35.5 -66.5h-24q-20 33 -38.5 66.5t-36.5 66.5h28z" />
    <glyph glyph-name="Yacute" unicode="&#xdd;" horiz-adv-x="638" 
d="M321 263l-37 -263h-32l37 264q-50 109 -99.5 218t-99.5 218h34q44 -97 88.5 -193t87.5 -193l9 -27h1q4 7 7 13.5t7 13.5q72 97 142.5 193t142.5 193h34q-81 -110 -161 -218.5t-161 -218.5zM359 750q27 33 54.5 66.5t54.5 66.5h30q-29 -33 -57.5 -66.5t-56.5 -66.5h-25z
" />
    <glyph glyph-name="exclamdown" unicode="&#xa1;" horiz-adv-x="200" 
d="M149 511q11 0 17.5 -7.5t5.5 -18.5q-2 -12 -11 -19.5t-19 -7.5t-16.5 7.5t-5.5 19.5q2 11 11 18.5t18 7.5zM116 374h27l-82 -584h-27z" />
    <glyph glyph-name="Oslash" unicode="&#xd8;" horiz-adv-x="840" 
d="M89 348q-10 -72 8.5 -133t60.5 -106q125 128 247.5 252.5t247.5 252.5q-37 32 -84.5 49.5t-103.5 17.5q-68 0 -131.5 -26.5t-114.5 -71.5t-85.5 -105.5t-44.5 -129.5zM369 19q69 0 133 26t116 71t87 105t44 128q11 75 -11 139t-68 110q-125 -127 -248 -252.5t-247 -252.5
q37 -35 86 -54.5t108 -19.5zM61 349q10 74 47.5 139.5t93 114t124.5 77t143 28.5q61 0 113 -19t92 -54q19 19 37 37.5t37 37.5q7 -9 16 -16q-19 -19 -36.5 -37t-36.5 -37q51 -50 74 -120t12 -151q-10 -74 -47.5 -139t-93 -113.5t-125 -76.5t-143.5 -28q-64 0 -118 21t-96 59
q-20 -20 -40 -41t-40 -41q-4 5 -8 8.5t-9 8.5q20 20 40 41t41 41q-46 48 -67 115t-10 145z" />
    <glyph glyph-name="questiondown" unicode="&#xbf;" horiz-adv-x="418" 
d="M366.005 -47.9639l12 -4q5.99902 -2 11.999 -4q-12.999 -26.998 -33.498 -51.9971q-20.499 -24.998 -46.9971 -43.9971t-58.4961 -29.998t-67.9961 -10.999q-40.998 0 -74.9951 15.499q-33.998 15.499 -56.4971 41.9971t-32.998 61.9961t-4.5 75.4961
q8 53.9961 39.998 94.9941q31.998 40.9971 81.9951 72.9951q19.999 13.999 37.9971 23.499q17.999 9.49902 32.498 21.998t24.499 30.998q9.99902 18.499 14.999 50.4971l10.999 77.9951h27.998l-13.999 -96.9941q-3.99902 -30.998 -17.999 -49.9971
q-13.999 -18.998 -34.4971 -33.9971q-20.499 -15 -45.4971 -28.499q-24.999 -13.499 -51.9971 -34.4971q-34.998 -26.999 -54.4971 -59.4971t-24.498 -69.4951q-5 -35.998 3.49902 -66.4961q8.5 -30.498 27.999 -52.9971q19.498 -22.499 48.4971 -35.498
q28.998 -12.999 63.9961 -12.999q58.9961 0 107.493 31.998t72.4951 85.9951zM291.01 519.001q9 0 15.999 -7.49902q7 -7.5 5 -18.499q-1 -11.999 -10 -19.499q-8.99902 -7.49902 -17.998 -7.49902q-10 0 -17.499 7.49902q-7.5 7.5 -5.5 19.499q2 10.999 10.999 18.499
q9 7.49902 18.999 7.49902z" />
    <glyph glyph-name="Atilde" unicode="&#xc3;" horiz-adv-x="740" 
d="M418 643l-6 27q-2 -6 -6 -14t-7 -13q-42 -79 -85 -154.5t-88 -153.5h278q-21 78 -42.5 154t-43.5 154zM628 0h-28q-23 77 -44 154t-44 154h-302l-86 -154t-87 -154h-29q103 184 206.5 366t206.5 366zM421 785q-13 17 -25 23t-26 6q-8 0 -18 -2t-20.5 -8t-19 -16.5
t-12.5 -26.5q-5 1 -10 1t-10 1q4 19 14 32.5t23 22t28 12.5t29 4q20 0 35 -10t29 -27t25.5 -23t25.5 -6q8 0 18.5 2t21 8t19 16.5t12.5 26.5q5 -1 9.5 -1t9.5 -1q-8 -38 -36.5 -54.5t-57.5 -16.5q-20 0 -35 10t-29 27z" />
    <glyph glyph-name="Otilde" unicode="&#xd5;" horiz-adv-x="839" 
d="M61 349q10 74 47.5 139.5t93 114t124.5 77t143 28.5t135.5 -28.5t103.5 -77t60.5 -114t8.5 -139.5t-47.5 -139t-93 -113.5t-125 -76.5t-143.5 -28t-135 28t-102.5 76.5t-60.5 113.5t-9 139zM89 348q-9 -68 8 -128t55.5 -104.5t94 -70.5t123.5 -26t132.5 26t116 71
t86.5 105t44 128q10 68 -7.5 128.5t-56.5 105.5t-95.5 71.5t-124.5 26.5t-131.5 -26.5t-114.5 -71.5t-85.5 -105.5t-44.5 -129.5zM463 821q-13 17 -25 23t-26 6q-8 0 -18 -2t-20.5 -8t-19 -16.5t-12.5 -26.5q-5 1 -10 1t-10 1q4 19 14 32.5t23 22t28 12.5t29 4q20 0 35 -10
t29 -27t25.5 -23t25.5 -6q8 0 18.5 2t21 8t19 16.5t12.5 26.5q5 -1 9.5 -1t9.5 -1q-8 -38 -36.5 -54.5t-57.5 -16.5q-20 0 -35 10t-29 27z" />
    <glyph glyph-name="acircumflex" unicode="&#xe2;" horiz-adv-x="551" 
d="M103 188q-5 -35 3.5 -65.5t28 -53t48.5 -35.5t64 -13t67.5 13t58.5 35.5t43.5 53t22.5 65.5t-4 65.5t-28.5 53.5t-48.5 36t-64 13t-67.5 -13t-58.5 -36t-43 -53.5t-22 -65.5zM75 188q6 43 26.5 79t50.5 62t67.5 40t77.5 14q30 0 56 -8.5t46 -23.5t34 -35t20 -42
q3 25 8 50t10 51h21l-52 -375h-25l6 50q2 13 4 25.5t4 26.5q-12 -22 -30.5 -41.5t-43 -34.5t-53 -24t-59.5 -9q-41 0 -74.5 15.5t-56 41.5t-33 61.5t-4.5 76.5zM350 660q24 -45 47.5 -90.5t47.5 -90.5h-25q-19 35 -37.5 69t-38.5 69l-114 -138h-25q36 45 72.5 90.5
t72.5 90.5z" />
    <glyph glyph-name="ecircumflex" unicode="&#xea;" horiz-adv-x="451" 
d="M280 356q-36 0 -67.5 -11.5t-56 -32.5t-41.5 -50t-23 -65q-4 -27 -3 -50q79 30 157.5 59.5t156.5 59.5q-14 40 -46 65t-77 25zM436 251q-86 -33 -171 -65t-170 -65q12 -45 49 -72.5t90 -27.5q33 0 64 12t57 33q3 -5 6.5 -10t7.5 -10q-30 -25 -65 -39t-74 -14
q-41 0 -74.5 15.5t-56 41.5t-33 61.5t-4.5 76.5q6 44 25 80t48.5 61.5t67.5 39.5t81 14q60 0 100.5 -37t51.5 -95zM324 660q24 -45 47.5 -90.5t47.5 -90.5h-25q-19 35 -37.5 69t-38.5 69l-114 -138h-25q36 45 72.5 90.5t72.5 90.5z" />
    <glyph glyph-name="icircumflex" unicode="&#xee;" horiz-adv-x="239" 
d="M130 0h-28l52 375h28zM202 660q24 -45 47.5 -90.5t47.5 -90.5h-25q-19 35 -37.5 69t-38.5 69l-114 -138h-25q36 45 72.5 90.5t72.5 90.5z" />
    <glyph glyph-name="ocircumflex" unicode="&#xf4;" 
d="M62 188q6 45 25.5 81t49 61.5t67.5 39.5t80 14q41 0 74.5 -15.5t57 -42t34 -62.5t4.5 -76q-6 -46 -26 -82t-50 -61t-68 -38.5t-80 -13.5q-41 0 -74.5 15.5t-56 41.5t-33 61.5t-4.5 76.5zM90 188q-5 -35 4 -65.5t28.5 -53t48 -35.5t63.5 -13q34 0 66.5 12t58.5 34
t43.5 52.5t22.5 68.5q5 35 -4 65.5t-28.5 53.5t-48.5 36t-64 13q-37 0 -69.5 -12t-57.5 -34.5t-41.5 -53.5t-21.5 -68zM319 660q24 -45 47.5 -90.5t47.5 -90.5h-25q-19 35 -37.5 69t-38.5 69l-114 -138h-25q36 45 72.5 90.5t72.5 90.5z" />
    <glyph glyph-name="ucircumflex" unicode="&#xfb;" horiz-adv-x="529" 
d="M418 -2h-28l7 55l9 45q-27 -48 -75 -76.5t-104 -28.5q-54 0 -81 31t-22 81l38 270h28l-38 -268q-3 -35 17 -60t62 -27q32 0 63 10.5t55.5 29.5t41.5 45.5t21 57.5l30 212h28zM350 660q24 -45 47.5 -90.5t47.5 -90.5h-25q-19 35 -37.5 69t-38.5 69l-114 -138h-25
q36 45 72.5 90.5t72.5 90.5z" />
    <glyph glyph-name="atilde" unicode="&#xe3;" horiz-adv-x="551" 
d="M103 188q-5 -35 3.5 -65.5t28 -53t48.5 -35.5t64 -13t67.5 13t58.5 35.5t43.5 53t22.5 65.5t-4 65.5t-28.5 53.5t-48.5 36t-64 13t-67.5 -13t-58.5 -36t-43 -53.5t-22 -65.5zM75 188q6 43 26.5 79t50.5 62t67.5 40t77.5 14q30 0 56 -8.5t46 -23.5t34 -35t20 -42
q3 25 8 50t10 51h21l-52 -375h-25l6 50q2 13 4 25.5t4 26.5q-12 -22 -30.5 -41.5t-43 -34.5t-53 -24t-59.5 -9q-41 0 -74.5 15.5t-56 41.5t-33 61.5t-4.5 76.5zM317 494q-13 17 -25 23t-26 6q-8 0 -18 -2t-20.5 -8t-19 -16.5t-12.5 -26.5q-5 1 -10 1t-10 1q4 19 14 32.5
t23 22t28 12.5t29 4q20 0 35 -10t29 -27t25.5 -23t25.5 -6q8 0 18.5 2t21 8t19 16.5t12.5 26.5q5 -1 9.5 -1t9.5 -1q-8 -38 -36.5 -54.5t-57.5 -16.5q-20 0 -35 10t-29 27z" />
    <glyph glyph-name="grave" unicode="`" horiz-adv-x="200" 
d="M17 612q18 -33 35.5 -66.5t35.5 -66.5h-24q-20 33 -38.5 66.5t-36.5 66.5h28z" />
    <glyph glyph-name="asciicircum" unicode="^" horiz-adv-x="470" 
d="M244 660q24 -45 47.5 -90.5t47.5 -90.5h-25q-19 35 -37.5 69t-38.5 69l-114 -138h-25q36 45 72.5 90.5t72.5 90.5z" />
    <glyph glyph-name="otilde" unicode="&#xf5;" 
d="M62 188q6 45 25.5 81t49 61.5t67.5 39.5t80 14q41 0 74.5 -15.5t57 -42t34 -62.5t4.5 -76q-6 -46 -26 -82t-50 -61t-68 -38.5t-80 -13.5q-41 0 -74.5 15.5t-56 41.5t-33 61.5t-4.5 76.5zM90 188q-5 -35 4 -65.5t28.5 -53t48 -35.5t63.5 -13q34 0 66.5 12t58.5 34
t43.5 52.5t22.5 68.5q5 35 -4 65.5t-28.5 53.5t-48.5 36t-64 13q-37 0 -69.5 -12t-57.5 -34.5t-41.5 -53.5t-21.5 -68zM287 494q-13 17 -25 23t-26 6q-8 0 -18 -2t-20.5 -8t-19 -16.5t-12.5 -26.5q-5 1 -10 1t-10 1q4 19 14 32.5t23 22t28 12.5t29 4q20 0 35 -10t29 -27
t25.5 -23t25.5 -6q8 0 18.5 2t21 8t19 16.5t12.5 26.5q5 -1 9.5 -1t9.5 -1q-8 -38 -36.5 -54.5t-57.5 -16.5q-20 0 -35 10t-29 27z" />
    <glyph glyph-name="quotesingle" unicode="'" horiz-adv-x="150" 
d="M44 472l35 248h31q-10 -63 -19.5 -124t-19.5 -124h-27z" />
    <glyph glyph-name="underscore" unicode="_" horiz-adv-x="600" 
d="M498 0h-400l3 27h400z" />
    <glyph glyph-name="bracketleft" unicode="[" horiz-adv-x="338" 
d="M20 -149l125 895h169l-4 -27h-139l-118 -841h140l-4 -27h-169z" />
    <glyph glyph-name="bracketright" unicode="]" horiz-adv-x="342" 
d="M313 746l-125 -895h-169l4 27h139l118 841h-140l4 27h169z" />
    <glyph glyph-name="degree" unicode="&#xb0;" horiz-adv-x="282" 
d="M129 501q25 0 45 16.5t23 42.5q3 25 -12 42t-39 17q-26 0 -45.5 -17t-22.5 -42q-4 -26 11 -42.5t40 -16.5zM55 559q5 35 32 58.5t62 23.5q34 0 54 -23.5t15 -58.5q-5 -34 -31 -57t-61 -23t-55.5 23t-15.5 57z" />
    <glyph glyph-name="ccedilla" unicode="&#xe7;" horiz-adv-x="385" 
d="M333 57q4 -5 8 -10.5t7 -10.5q-53 -39 -122 -43q-3 -26 10 -36t25 -18q20 -15 26.5 -34t3.5 -35q-6 -48 -33 -71.5t-61 -25.5q-18 -1 -34 3q-19 6 -32 20t-18 37q5 2 10.5 4t11.5 4q3 -20 18 -33t39 -13q29 0 50 20t25 49q4 26 -6.5 40.5t-24 25t-24.5 21t-9 29.5l2 15
q-38 2 -68.5 18t-51.5 42t-30 60t-4 73q6 40 26 76t50 62t68 41.5t79 15.5q35 0 65 -11.5t52 -31.5l-21 -21q-20 17 -45 27t-55 10q-35 0 -67.5 -13t-58.5 -36t-43 -53.5t-22 -65.5t3.5 -65.5t28 -53t48 -35.5t63.5 -13q31 0 59 9.5t52 26.5z" />
    <glyph glyph-name="Ccedilla" unicode="&#xc7;" horiz-adv-x="670" 
d="M560 65l12 -23q-42 -23 -89 -36t-97 -14q-1 -13 2 -21t8 -14t11.5 -10t12.5 -8q20 -15 27 -34t5 -35q-8 -50 -36.5 -74t-65.5 -24q-28 0 -49.5 15t-27.5 46q5 2 11 4t11 4q3 -20 18 -33t39 -13q29 0 49.5 20t25.5 49q4 26 -6.5 40.5t-24 25t-25 21t-8.5 29.5l2 13
q-71 3 -128.5 32.5t-96.5 77.5t-56.5 111t-7.5 135q10 74 47.5 139.5t93 114t124.5 77t143 28.5q51 0 94.5 -13t81.5 -37q-5 -6 -9.5 -11.5t-9.5 -11.5q-33 23 -74 34.5t-86 11.5q-68 0 -132 -26.5t-115 -71.5t-85.5 -105.5t-44.5 -129.5q-9 -68 8 -128t55.5 -104.5
t94 -70.5t123.5 -26q46 0 90 12t85 34z" />
    <glyph glyph-name="endash" unicode="&#x2013;" horiz-adv-x="509" 
d="M98 178l3 27h301l-3 -27h-301z" />
    <glyph glyph-name="emdash" unicode="&#x2014;" horiz-adv-x="700" 
d="M97 178l3 27h502l-3 -27h-502z" />
    <glyph glyph-name="cedilla" unicode="&#xb8;" horiz-adv-x="452" 
d="M207 0h21l-1 -6q-2 -14 1 -22.5t8 -14.5t12 -10t13 -8q20 -15 26.5 -34t4.5 -35q-7 -50 -36 -74t-66 -24q-28 0 -49.5 15t-27.5 46q6 2 11.5 4t11.5 4q3 -20 18 -33t38 -13q30 0 50.5 20t25.5 49q3 26 -7.5 40.5t-24 25t-24.5 21t-8 29.5z" />
    <glyph glyph-name="acute" unicode="&#xb4;" horiz-adv-x="229" 
d="M90 479q27 33 54.5 66.5t54.5 66.5h30q-29 -33 -57.5 -66.5t-56.5 -66.5h-25z" />
    <glyph glyph-name="dieresis" unicode="&#xa8;" horiz-adv-x="370" 
d="M240 504q2 11 10.5 19t19.5 8t18 -8t5 -19t-10.5 -18.5t-19.5 -7.5t-18 7.5t-5 18.5zM75 504q2 11 10.5 19t19.5 8t18 -8t5 -19t-10.5 -18.5t-19.5 -7.5t-18 7.5t-5 18.5z" />
    <glyph glyph-name="Eth" unicode="&#xd0;" horiz-adv-x="646" 
d="M107 339l-45 -312h95q77 0 144.5 22t120 63.5t87 101.5t45.5 136q10 74 -7 134t-57 102t-101.5 64.5t-139.5 22.5h-95l-44 -307h216l-4 -27h-215zM83 366l47 334h140q73 0 135 -24.5t105 -70t62.5 -110.5t8.5 -145q-9 -63 -37.5 -125.5t-82 -112.5t-134 -81t-191.5 -31
h-105l48 339h-59l4 27h59z" />
    <glyph glyph-name="thorn" unicode="&#xfe;" horiz-adv-x="557" 
d="M421 187q5 35 -3.5 65.5t-28 53t-48.5 35.5t-64 13t-67.5 -13t-58.5 -35.5t-43 -53t-22 -65.5t3.5 -65.5t28 -53.5t48.5 -36t64 -13t67.5 13t58.5 36t43 53.5t22 65.5zM449 187q-6 -41 -26 -76.5t-50 -61.5t-68 -41.5t-79 -15.5q-31 0 -57 8.5t-46 23.5t-33 34.5
t-18 41.5q-2 -12 -2.5 -24t-2.5 -23l-42 -303h-28l140 1000h28l-60 -421q-2 -14 -5.5 -29t-5.5 -29q12 22 31.5 42t44 35t53 24t58.5 9q41 0 74.5 -15.5t56 -41.5t33 -61.5t4.5 -75.5z" />
    <glyph glyph-name="eth" unicode="&#xf0;" horiz-adv-x="493" 
d="M55 188q-5 -35 4 -65.5t28.5 -53t48.5 -35.5t64 -13t67.5 13.5t58.5 36t43 53t22 65.5q4 35 -4.5 66t-28 53.5t-48.5 35t-64 12.5t-67.5 -13t-58.5 -36t-43 -53.5t-22 -65.5zM168 544q21 19 42 38.5t41 38.5q-37 50 -81 89q5 5 10 9t10 9q41 -36 82 -87q19 18 38 35.5
t37 35.5q5 -4 8.5 -8t7.5 -8q-20 -18 -39 -36.5t-39 -37.5q33 -47 60.5 -100.5t46.5 -109.5t26.5 -112.5t0.5 -109.5q-6 -41 -26 -76.5t-50 -62t-67.5 -42t-78.5 -15.5t-74 14.5t-56 41t-33.5 61.5t-5.5 76q6 40 26 76t50 62.5t67.5 42.5t78.5 16q45 0 79 -20t54 -52
q-5 53 -32 129t-87 161q-20 -19 -40 -37.5t-40 -37.5l-8.5 8.5t-7.5 8.5z" />
    <glyph glyph-name="Thorn" unicode="&#xde;" horiz-adv-x="501" 
d="M106 197h109q55 0 93.5 15t63 38.5t37 51t15.5 53.5q4 30 -6 58t-32 49t-54 33.5t-72 12.5h-110zM78 0h-28l99 700h28l-23 -165h117q30 0 64.5 -10t62.5 -31.5t44.5 -56t9.5 -82.5q-11 -85 -73.5 -135t-165.5 -50h-111z" />
    <glyph glyph-name="Acircumflex" unicode="&#xc2;" horiz-adv-x="740" 
d="M418 643l-6 27q-2 -6 -6 -14t-7 -13q-42 -79 -85 -154.5t-88 -153.5h278q-21 78 -42.5 154t-43.5 154zM628 0h-28q-23 77 -44 154t-44 154h-302l-86 -154t-87 -154h-29q103 184 206.5 366t206.5 366zM448 931q24 -45 47.5 -90.5t47.5 -90.5h-25q-19 35 -37.5 69t-38.5 69
l-114 -138h-25q36 45 72.5 90.5t72.5 90.5z" />
    <glyph glyph-name="Ecircumflex" unicode="&#xca;" horiz-adv-x="601" 
d="M40 0l99 700h410l-4 -27h-382l-44 -307h344l-4 -27h-343l-45 -312h397l-4 -27h-424zM388 931q24 -45 47.5 -90.5t47.5 -90.5h-25q-19 35 -37.5 69t-38.5 69l-114 -138h-25q36 45 72.5 90.5t72.5 90.5z" />
    <glyph glyph-name="Icircumflex" unicode="&#xce;" horiz-adv-x="246" 
d="M154 700h28l-99 -700h-28zM203 931q24 -45 47.5 -90.5t47.5 -90.5h-25q-19 35 -37.5 69t-38.5 69l-114 -138h-25q36 45 72.5 90.5t72.5 90.5z" />
    <glyph glyph-name="Ocircumflex" unicode="&#xd4;" horiz-adv-x="839" 
d="M61 349q10 74 47.5 139.5t93 114t124.5 77t143 28.5t135.5 -28.5t103.5 -77t60.5 -114t8.5 -139.5t-47.5 -139t-93 -113.5t-125 -76.5t-143.5 -28t-135 28t-102.5 76.5t-60.5 113.5t-9 139zM89 348q-9 -68 8 -128t55.5 -104.5t94 -70.5t123.5 -26t132.5 26t116 71
t86.5 105t44 128q10 68 -7.5 128.5t-56.5 105.5t-95.5 71.5t-124.5 26.5t-131.5 -26.5t-114.5 -71.5t-85.5 -105.5t-44.5 -129.5zM503 931q24 -45 47.5 -90.5t47.5 -90.5h-25q-19 35 -37.5 69t-38.5 69l-114 -138h-25q36 45 72.5 90.5t72.5 90.5z" />
    <glyph glyph-name="Ucircumflex" unicode="&#xdb;" horiz-adv-x="652" 
d="M279 -8q-50 0 -90 15t-66.5 44.5t-37.5 73.5t-3 101l66 474h28l-66 -471q-7 -51 2.5 -90t32.5 -65.5t58.5 -40.5t79.5 -14q43 0 82.5 14t70 40.5t51.5 65.5t28 90l66 471h28l-66 -474q-8 -57 -32 -101t-59.5 -73.5t-79.5 -44.5t-93 -15zM411 932q24 -45 47.5 -90.5
t47.5 -90.5h-25q-19 35 -37.5 69t-38.5 69l-114 -138h-25q36 45 72.5 90.5t72.5 90.5z" />
    <glyph glyph-name="plusminus" unicode="&#xb1;" horiz-adv-x="524" 
d="M232 211l24 167h-166l3 27h166l24 166h28l-24 -166h166l-3 -27h-166l-24 -167h-28zM414 129h-360l4 27h360z" />
    <glyph glyph-name="dollar" unicode="$" horiz-adv-x="567" 
d="M147 527q-8 -56 19.5 -84t80.5 -46q7 -4 16 -6l41 285q-35 -2 -62 -15t-47 -33.5t-32 -46.5t-16 -54zM432 183q6 40 -5.5 68t-33 47t-50.5 31.5t-57 22.5l-47 -332q34 2 67 14.5t59.5 33.5t44 50t22.5 65zM467 644q-5 -5 -9.5 -11t-9.5 -11q-14 15 -43.5 32.5t-72.5 21.5
l-42 -295q30 -11 63 -24.5t59 -35t41 -54.5t8 -81q-6 -43 -26.5 -77.5t-51 -59.5t-68.5 -39.5t-80 -16.5l-8 -61h-28l8 61q-36 2 -64.5 12.5t-49.5 24.5t-35 28.5t-22 25.5l22 20q12 -14 26.5 -28t33.5 -26t42 -20.5t51 -9.5l48 342q-2 1 -4.5 1.5t-4.5 2.5q-18 6 -42 15.5
t-45 26.5t-34.5 43.5t-10.5 65.5q2 32 15 64t37 58.5t58 44t79 19.5l9 61h28l-9 -61q35 -2 67.5 -15.5t64.5 -43.5z" />
    <glyph glyph-name="cent" unicode="&#xa2;" horiz-adv-x="385" 
d="M64 188q-5 -32 2 -60t23.5 -50t41 -36.5t54.5 -18.5l46 329q-32 -3 -60 -17.5t-50.5 -36t-37.5 -50t-19 -60.5zM318 57l15 -21q-56 -40 -124 -42l-9 -62h-28l9 64q-36 4 -65.5 20.5t-49 42t-28 58.5t-2.5 71q5 37 23 70.5t44.5 59.5t60.5 42.5t71 20.5l8 57h28l-8 -55
q33 -1 62.5 -12t50.5 -31l-10.5 -10.5l-10.5 -10.5q-39 35 -96 36l-46 -334q28 1 55 10.5t50 25.5z" />
    <glyph glyph-name="bullet" unicode="&#x2022;" horiz-adv-x="479" 
d="M161 300q5 33 31 55.5t58 22.5t51.5 -22.5t14.5 -55.5q-5 -32 -30.5 -54.5t-58.5 -22.5q-16 0 -29 6t-22 16.5t-13 24.5t-2 30z" />
    <glyph glyph-name="quotedblleft" unicode="&#x201c;" horiz-adv-x="249" 
d="M186 590q-5 -5 -8 -9.5t-8 -9.5q-25 26 -32.5 63t6.5 77q6 -2 12.5 -3.5t12.5 -3.5q-11 -35 -6 -64.5t23 -49.5zM82 590q-5 -5 -8 -9.5t-8 -9.5q-25 26 -32.5 63t6.5 77q6 -2 12.5 -3.5t12.5 -3.5q-11 -35 -6 -64.5t23 -49.5z" />
    <glyph glyph-name="quotedblright" unicode="&#x201d;" horiz-adv-x="248" 
d="M40 571q-2 5 -5 9.5t-5 9.5q23 20 37 49.5t12 64.5q7 2 13.5 3.5t12.5 3.5q3 -40 -14.5 -77t-50.5 -63zM144 571q-2 5 -5 9.5t-5 9.5q23 20 37 49.5t12 64.5q7 2 13.5 3.5t12.5 3.5q3 -40 -14.5 -77t-50.5 -63z" />
    <glyph glyph-name="quoteleft" unicode="&#x2018;" horiz-adv-x="164" 
d="M89 590q-4 -5 -7.5 -9.5t-7.5 -9.5q-26 26 -33.5 63t6.5 77q6 -2 13 -3.5t12 -3.5q-11 -35 -6 -64.5t23 -49.5z" />
    <glyph glyph-name="quotedblbase" unicode="&#x201e;" horiz-adv-x="255" 
d="M23 -48q-6 9 -11 19q24 20 37.5 49.5t11.5 64.5q7 2 13.5 3.5t13.5 3.5q2 -40 -15.5 -77t-49.5 -63zM127 -48q-6 9 -11 19q24 20 37.5 49.5t11.5 64.5q7 2 13.5 3.5t13.5 3.5q2 -40 -15.5 -77t-49.5 -63z" />
    <glyph glyph-name="quotesinglbase" unicode="&#x201a;" horiz-adv-x="146" 
d="M23 -48q-6 9 -11 19q24 20 37.5 49.5t11.5 64.5q7 2 13.5 3.5t13.5 3.5q2 -40 -15.5 -77t-49.5 -63z" />
    <glyph glyph-name="guilsinglright" unicode="&#x203a;" horiz-adv-x="392" 
d="M98 109q36 32 72.5 64.5t73.5 65.5q-28 32 -55 64l-54 64l4 33q38 -41 74.5 -80.5t74.5 -80.5l-194 -162z" />
    <glyph glyph-name="guillemotleft" unicode="&#xab;" horiz-adv-x="601" 
d="M436 77l-148 162q48 41 96.5 80.5t96.5 80.5l-4 -32q-36 -32 -72.5 -64.5t-72.5 -64.5q27 -33 54 -65.5t54 -64.5zM265 77l-148 162q48 41 96.5 80.5t96.5 80.5l-4 -33q-36 -32 -72.5 -64t-72.5 -64q27 -33 54 -65.5t54 -64.5z" />
    <glyph glyph-name="guillemotright" unicode="&#xbb;" horiz-adv-x="601" 
d="M98 109q36 32 72.5 64.5t73.5 65.5q-28 32 -55 64.5t-54 64.5l4 32q38 -41 74.5 -80.5t74.5 -80.5l-194 -162zM269 109q36 32 72.5 64.5t73.5 65.5q-28 32 -55 64l-54 64l4 33q38 -41 74.5 -80.5t74.5 -80.5l-194 -162z" />
    <glyph glyph-name="yen" unicode="&#xa5;" horiz-adv-x="638" 
d="M451 127l-4 -27h-149l-14 -100h-32l14 100h-152l4 27h152l19 136h-152l4 27h136q-48 103 -94 205t-93 205h34q44 -97 88 -193t88 -193l9 -27h1q4 7 7 13.5t7 13.5q72 97 142.5 193t142.5 193h34q-76 -103 -151.5 -205t-151.5 -205h134l-4 -27h-149l-19 -136h149z" />
    <glyph glyph-name="copyright" unicode="&#xa9;" horiz-adv-x="793" 
d="M366 135q49 0 95 18t82.5 49.5t61 75t31.5 93.5q7 52 -5.5 95.5t-40 75.5t-68.5 50t-90 18t-94.5 -18t-82 -50t-61.5 -75.5t-32 -95.5q-7 -50 5.5 -93.5t40.5 -75t68.5 -49.5t89.5 -18zM364 117q-54 0 -98.5 19t-74.5 53t-43.5 81t-5.5 102t34.5 102t66 81.5t89 53.5
t103.5 19t98 -19t74 -53.5t43.5 -81.5t5.5 -102t-34.5 -102t-65.5 -81t-88.5 -53t-103.5 -19zM462 246l6 -10q-20 -11 -41.5 -17t-44.5 -6q-33 0 -61 13t-46.5 35t-27 51.5t-3.5 62.5q4 34 21 63.5t42 51.5t56.5 34.5t64.5 12.5q44 0 79 -22q-2 -3 -4 -5.5t-4 -5.5
q-30 21 -73 21q-31 0 -59.5 -12t-51.5 -32.5t-39 -48t-20 -58.5t4 -58t25 -47t42.5 -31.5t55.5 -11.5q42 0 79 20z" />
    <glyph glyph-name="registered" unicode="&#xae;" horiz-adv-x="801" 
d="M366 135q49 0 95 18t82.5 49.5t61 75t31.5 93.5q7 52 -5.5 95.5t-40 75.5t-68.5 50t-90 18t-94.5 -18t-82 -50t-61.5 -75.5t-32 -95.5q-7 -50 5.5 -93.5t40.5 -75t68.5 -49.5t89.5 -18zM364 117q-54 0 -98.5 19t-74.5 53t-43.5 81t-5.5 102t34.5 102t66 81.5t89 53.5
t103.5 19t98 -19t74 -53.5t43.5 -81.5t5.5 -102t-34.5 -102t-65.5 -81t-88.5 -53t-103.5 -19zM345 381h51q26 0 44.5 7t30 18.5t17.5 24.5t8 25q4 29 -18 50.5t-60 21.5h-52zM308 210l46 331h69q14 0 30.5 -4.5t30 -15t21 -26.5t4.5 -39q-5 -34 -26.5 -56t-57.5 -29
q14 -41 27 -81t27 -80h-15q-13 40 -26 79.5t-26 80.5q-5 -1 -10 -1.5t-10 -0.5h-49l-22 -158h-13z" />
    <glyph glyph-name="divide" unicode="&#xf7;" horiz-adv-x="501" 
d="M426 209h-360l3 28h360zM242 347q2 11 10.5 19t19.5 8t17.5 -8t4.5 -19q-1 -11 -10 -18.5t-20 -7.5t-17.5 7.5t-4.5 18.5zM207 97q1 11 10 19t20 8t17.5 -8t4.5 -19t-10.5 -18.5t-19.5 -7.5t-17.5 7.5t-4.5 18.5z" />
    <glyph glyph-name="onehalf" unicode="&#xbd;" horiz-adv-x="1069" 
d="M150.242 676.153l2.83984 19.1631h93.707l-64.6016 -461.316h-19.877l61.7617 442.153h-73.8301zM599.86 19.0967h237.583l-2.82812 -19.0967h-286.373q51.6182 43.8516 100.054 86.2871q48.4365 42.4375 86.9727 82.752t63.6377 77.7998
q25.1025 37.4854 30.0518 70.7275q4.9502 36.7783 -2.12109 61.5332t-21.2129 39.6074t-32.1729 21.2188q-18.0303 6.36523 -35.001 6.36523q-33.2334 0 -56.5674 -12.0234q-23.334 -12.0244 -38.1826 -29.3525t-22.2734 -37.8389q-7.4248 -20.5117 -10.2529 -37.4863
q-6.36426 -48.8018 17.6777 -79.2148q-3.53613 -3.53613 -7.07129 -6.01172q-3.53516 -2.47461 -7.07129 -5.30469q-14.1416 16.2676 -20.5059 39.2539q-6.36328 22.9863 -2.82812 51.2773q4.24316 28.291 16.2637 53.0459t31.1113 43.1436q19.0918 18.3896 44.9004 28.999
q25.8096 10.6084 57.6279 10.6084q28.2842 0 50.5576 -10.6084q22.2734 -10.6094 36.415 -29.3525q14.1416 -18.7422 19.7988 -44.2041q5.65625 -25.4619 1.41406 -55.168q-5.65723 -39.6074 -30.0518 -78.8613q-24.3945 -39.2529 -59.749 -77.4463t-77.4268 -76.0322
t-82.376 -74.6172zM234 -18.9805q97 189.803 192 377.108t192 377.108h28q-97 -189.803 -192 -377.108t-192 -377.108h-28z" />
    <glyph glyph-name="onequarter" unicode="&#xbc;" horiz-adv-x="968" 
d="M234 -18.9805q97 189.803 192 377.108t192 377.108h28q-97 -189.803 -192 -377.108t-192 -377.108h-28zM777.879 428.941q-61.667 -68.5117 -122.963 -136.278t-123.706 -136.278h208.777zM485.888 136.278q80.9854 88.6182 160.855 176.864
q79.8701 88.2451 160.855 176.863l-46.8076 -333.621h72.0684l-2.97168 -20.1064h-72.0693l-19.3174 -136.278h-20.8037l19.3184 136.278h-251.128zM164.169 675.926l2.83594 19.1523h93.5781l-64.5127 -461.078h-19.8496l61.6768 441.926h-73.7285z" />
    <glyph glyph-name="ordfeminine" unicode="&#xaa;" horiz-adv-x="585" 
d="M132.302 441.596q-3.60742 -25.2441 2.52441 -47.2422t20.1982 -38.2266q14.0674 -16.2285 34.9873 -25.6045t46.168 -9.37598t48.6924 9.37598q23.4453 9.37598 42.2002 25.6045q18.7559 16.2285 31.3799 38.2266t16.2314 47.2422q3.60645 25.2432 -2.88574 47.2422
q-6.49219 21.998 -20.5596 38.5869q-14.0664 16.5889 -34.9863 25.9648t-46.168 9.37598t-48.6924 -9.37598q-23.4453 -9.37598 -42.2002 -25.9648q-18.7559 -16.5889 -31.0195 -38.5869q-12.2637 -21.999 -15.8701 -47.2422zM112.104 441.596
q4.32812 31.0137 19.1162 56.9785t36.4287 44.7178q21.6416 18.7529 48.6934 28.8506q27.0518 10.0967 55.9062 10.0967q21.6416 0 40.3975 -6.12988q18.7559 -6.13086 33.1826 -16.9502q14.4277 -10.8184 24.5273 -25.2432q10.0986 -14.4258 14.4268 -30.293
q2.16504 18.0312 5.77148 36.0625t7.21387 36.7842h15.1484l-37.5117 -270.47h-18.0342l4.32812 36.0625q1.44336 9.37598 2.88574 18.3916q1.44336 9.0166 2.88574 19.1133q-8.65625 -15.8672 -22.002 -29.9316t-31.0195 -24.8828q-17.6729 -10.8193 -38.2324 -17.3105
t-42.9219 -6.49121q-29.5762 0 -53.7422 11.1797t-40.3975 29.9316q-16.2305 18.7529 -23.8047 44.3574q-7.5752 25.6045 -3.24609 55.1758z" />
    <glyph glyph-name="sterling" unicode="&#xa3;" horiz-adv-x="574" 
d="M87 27h199h33q61 0 86.5 10.5t30.5 41.5l8 55h28l-7 -48q-2 -17 -6 -32.5t-17 -27.5t-38 -19t-69 -7h-352l3 27h43q18 0 29 6.5t19 22.5t13 43t11 68l19 136h-65l4 28h65l24 169q10 70 61 102t129 32q33 0 57.5 -7t41.5 -19t28.5 -28.5t18.5 -36.5l-12 -6t-11 -6
q-8 20 -18 34.5t-24.5 23.5t-35 13.5t-49.5 4.5q-41 0 -69.5 -8.5t-47 -23t-28.5 -34t-13 -42.5l-24 -168h127l-4 -28h-127l-21 -151l-5 -32q-4 -29 -11.5 -54t-23.5 -39z" />
    <glyph glyph-name="onesuperior" unicode="&#xb9;" horiz-adv-x="254" 
d="M86.3594 687.594l1.83301 12.4209h60.4727l-41.6895 -299.015h-12.8271l39.8564 286.594h-47.6455z" />
    <glyph glyph-name="threequarters" unicode="&#xbe;" horiz-adv-x="1276" 
d="M220.478 479.408q46.2627 52.5186 90.9844 103.879q44.7217 51.3613 90.9844 103.107h-206.643l3.08398 21.626h247.509q-43.1787 -48.6572 -85.9727 -96.1562t-85.9727 -96.1562q33.1553 -0.772461 60.5283 -12.7441q27.3721 -11.9707 46.2627 -32.8242
q18.8916 -20.8525 27.7588 -49.4297q8.86719 -28.5762 4.24023 -61.7871q-4.62598 -33.21 -21.5898 -62.1729q-16.9629 -28.9629 -41.6367 -50.5879q-24.6738 -21.626 -55.5156 -33.9834q-30.8428 -12.3574 -63.998 -12.3574q-34.6973 0 -62.4561 13.9023
q-27.7578 13.9014 -46.2627 37.8447q3.85449 3.86133 8.86719 8.49512q5.01172 4.63379 8.86621 8.49609q14.6504 -20.8535 38.5537 -34.3691q23.9023 -13.5156 53.9736 -13.5156q28.5293 0 55.5156 11.1982q26.9873 11.1992 48.9629 30.1211
q21.9746 18.9229 36.625 44.0234q14.6504 25.1016 18.5049 52.9053q3.85547 28.5771 -3.85449 53.6777q-7.71094 25.1006 -24.2891 43.6377q-16.5771 18.5352 -40.4805 29.3486q-23.9023 10.8125 -52.4316 10.8125q-13.1074 0 -25.8301 -4.63379
q-12.7227 -4.63477 -24.2881 -12.3574zM404 -19q97 190 192 377.5t192 377.5h28q-97 -190 -192 -377.5t-192 -377.5h-28zM976.578 428.941q-61.8096 -68.5117 -123.246 -136.278t-123.991 -136.278h209.258zM683.915 136.278q81.1709 88.6182 161.226 176.864
q80.0537 88.2451 161.226 176.863l-46.916 -333.621h72.2354l-2.97852 -20.1064h-72.2354l-19.3623 -136.278h-20.8516l19.3623 136.278h-251.705z" />
    <glyph glyph-name="twosuperior" unicode="&#xb2;" horiz-adv-x="398" 
d="M115.109 388.335h166.339l-1.98047 -13.335h-200.497q36.1387 30.6211 70.0498 60.2559q33.9111 29.6328 60.8926 57.7852q26.9805 28.1523 44.5547 54.3291t21.04 49.3896q3.46484 25.6826 -1.48535 42.9688t-14.8516 27.6582t-22.5254 14.8164
q-12.624 4.44531 -24.5049 4.44531q-23.2676 0 -39.6045 -8.39648q-16.3369 -8.39551 -26.7334 -20.4961t-15.5938 -26.4238q-5.19824 -14.3223 -7.17871 -26.1758q-4.45508 -34.0791 12.376 -55.3164q-2.47461 -2.46973 -4.9502 -4.19824
q-2.47559 -1.72949 -4.9502 -3.7041q-9.90137 11.3594 -14.3564 27.4111q-4.45605 16.0518 -1.98047 35.8076q2.96973 19.7559 11.3857 37.042t21.7832 30.1279q13.3662 12.8408 31.4355 20.249q18.0693 7.40918 40.3477 7.40918q19.8018 0 35.3965 -7.40918
q15.5938 -7.4082 25.4951 -20.4961q9.90137 -13.0889 13.8613 -30.8691q3.96094 -17.7803 0.990234 -38.5234q-3.95996 -27.6582 -21.04 -55.0693q-17.0791 -27.4121 -41.832 -54.082t-54.209 -53.0938q-29.4551 -26.4238 -57.6738 -52.1064z" />
    <glyph glyph-name="paragraph" unicode="&#xb6;" horiz-adv-x="501" 
d="M176 0h-28l59 423q-34 0 -62 12.5t-47 34.5t-27.5 52t-3.5 64t22 64t42 52t56.5 35t65.5 13h191l-105 -750h-28l101 723h-135z" />
    <glyph glyph-name="logicalnot" unicode="&#xac;" horiz-adv-x="559" 
d="M425 148l10 71h-332l3 23h360l-13 -94h-28z" />
    <glyph glyph-name="threesuperior" unicode="&#xb3;" horiz-adv-x="419" 
d="M133.814 554.32q29.4287 33.4863 57.877 66.2324q28.4473 32.7471 57.876 65.7402h-131.448l1.96191 13.7871h157.444q-27.4668 -31.0225 -54.6885 -61.3076q-27.2217 -30.2842 -54.6885 -61.3076q21.0898 -0.492188 38.502 -8.125t29.4287 -20.9277
q12.0166 -13.2959 17.6572 -31.5156q5.64062 -18.2207 2.69824 -39.3945q-2.94336 -21.1748 -13.7334 -39.6416q-10.791 -18.4658 -26.4863 -32.2539t-35.3145 -21.667t-40.709 -7.87891q-22.0723 0 -39.7295 8.86328q-17.6572 8.86426 -29.4287 24.1299
q2.45312 2.46191 5.64062 5.41699q3.18848 2.9541 5.64062 5.41602q9.31934 -13.2949 24.5234 -21.9131q15.2051 -8.61719 34.334 -8.61719q18.1475 0 35.3145 7.13965q17.167 7.14062 31.1455 19.2051t23.2979 28.0684q9.31836 16.0039 11.7715 33.7324
q2.45215 18.2197 -2.45312 34.2236q-4.9043 16.0039 -15.4492 27.8223q-10.5459 11.8184 -25.75 18.7119q-15.2051 6.89453 -33.3535 6.89453q-8.33789 0 -16.4307 -2.95508q-8.09277 -2.9541 -15.4502 -7.87891z" />
    <glyph glyph-name="brokenbar" unicode="&#xa6;" horiz-adv-x="215" 
d="M57 -233h-28l49 350h28zM139 350h-28l49 350h28z" />
    <glyph glyph-name="ampersand" unicode="&#x26;" horiz-adv-x="700" 
d="M107 187q-5 -35 3.5 -65.5t28 -53t48.5 -35.5t64 -13q45 0 85 20.5t66 55.5q-30 65 -60.5 128.5t-60.5 128.5q-33 -3 -62.5 -17t-53 -36t-39 -51t-19.5 -62zM478 238l-8 -51q-3 -25 -13 -48t-24 -43q12 -25 24 -49.5t24 -50.5l-24 -15q-11 22 -21.5 44.5t-21.5 44.5
q-32 -35 -75.5 -56t-91.5 -21q-41 0 -74.5 15t-56 41.5t-33 61.5t-4.5 76q5 36 22 68.5t42.5 58t57.5 42.5t67 23q-14 29 -27.5 58.5t-27.5 58.5q-14 30 -16.5 62t6.5 63t31 58t58 47q31 17 60.5 20.5t56.5 -1.5t50.5 -16t40.5 -23l-15 -24q-19 12 -40 22.5t-43.5 15
t-46.5 1.5t-49 -17q-63 -37 -77.5 -91.5t9.5 -106.5q45 -94 88.5 -186.5t88.5 -186.5q24 37 33 82l8 56q7 41 18.5 62.5t25.5 30.5t30 10t33 1h39l-3 -27h-55q-31 0 -44.5 -24.5t-21.5 -85.5z" />
    <glyph glyph-name="germandbls" unicode="&#xdf;" horiz-adv-x="573" 
d="M135 19q4 7 7.5 12.5t7.5 11.5q37 -25 86 -25q37 0 72 14.5t63 39t47 57.5t24 69t-5 67.5t-31 55.5t-51.5 38t-67.5 14q1 3 1 6.5t1 7.5l2 14q24 0 46.5 8t40.5 22t30 33.5t15 43.5t-2.5 46t-18.5 39t-33 27t-45 10q-33 0 -64 -14t-57 -40.5t-44.5 -64t-25.5 -83.5
l-60 -428h-28l51 363h-64l3 27h65l5 35q7 55 28.5 98t51.5 72.5t67 45.5t75 17q30 -1 54.5 -12.5t41.5 -31.5t24.5 -46.5t3.5 -56.5q-6 -42 -33.5 -74t-66.5 -48q30 -9 54.5 -27t40.5 -43t22.5 -56t1.5 -65q-6 -43 -27.5 -80.5t-54 -65.5t-72.5 -44t-82 -16q-55 0 -99 27z
" />
    <glyph glyph-name="currency" unicode="&#xa4;" horiz-adv-x="500" 
d="M137 361q-3 -23 3 -43t18.5 -35t31 -24t41.5 -9t44.5 9t38.5 24t28.5 35t14.5 43t-2.5 43t-18.5 35t-31.5 24t-41.5 9t-44 -9t-38 -24t-29 -35t-15 -43zM109 361q4 24 14.5 45.5t27.5 39.5q-8 9 -15 17.5t-15 17.5l23 20l30 -35q20 15 43.5 24t49.5 9q25 0 46.5 -9
t35.5 -25l41 35l16 -19l-39 -35q12 -17 17 -39t1 -46q-7 -50 -45 -88l33 -38l-23 -20q-8 10 -16.5 19t-16.5 19q-41 -30 -90 -30q-48 0 -80 29l-44 -38l-17 20l43 38q-12 18 -17.5 40.5t-2.5 48.5z" />
    <glyph glyph-name="section" unicode="&#xa7;" horiz-adv-x="500" 
d="M172 321q8 -27 31 -40.5t52 -11.5q19 1 36 10.5t29.5 23.5t20 31t7.5 35q0 20 -7 36t-19.5 27t-28.5 16t-34 4q-26 -2 -45.5 -15.5t-31 -32.5t-14.5 -41t4 -42zM213 153q-22 48 -37 82t-28 65q-10 21 -10 44t8.5 45t24 41t37.5 32q26 14 54 14t51 -11q-12 25 -23 50.5
t-22 51.5t-15 45t-3 33t6.5 24.5t13.5 18.5q14 15 37.5 27t42.5 21q2 -5 4.5 -11t5.5 -12q-14 -8 -26 -14t-26 -14q-28 -15 -29 -40.5t20 -75.5h1q17 -38 33 -75.5t33 -75.5q10 -21 9.5 -43.5t-8.5 -44.5t-24 -40.5t-38 -31.5q-26 -15 -54 -15.5t-51 11.5l45 -102
q11 -26 15.5 -45t3 -33.5t-7 -25t-13.5 -18.5q-14 -16 -37 -27.5t-42 -20.5q-2 6 -4.5 12t-5.5 12q14 7 26 13.5t26 13.5q28 15 29 41.5t-22 78.5z" />
    <glyph glyph-name="periodcentered" unicode="&#xb7;" horiz-adv-x="164" 
d="M59 280q2 11 10.5 19t19.5 8t18 -8t5 -19t-10.5 -18.5t-19.5 -7.5t-18 7.5t-5 18.5z" />
    <glyph glyph-name="ordmasculine" unicode="&#xba;" 
d="M109.718 441.596q4.32715 32.4561 18.3916 58.4209q14.0645 25.9658 35.3418 44.3574q21.2764 18.3916 48.6846 28.4893q27.4072 10.0977 57.7002 10.0977q29.5713 0 53.7334 -11.1797q24.1611 -11.1787 41.1113 -30.292q16.9492 -19.1133 24.5225 -45.0791
q7.57324 -25.9648 3.24512 -54.8145q-4.32715 -33.1777 -18.752 -59.1426q-14.4248 -25.9658 -36.0625 -43.9971t-49.0459 -27.7676q-27.4072 -9.7373 -57.7002 -9.7373q-29.5713 0 -53.7334 11.1797q-24.1611 11.1797 -40.3896 29.9316q-16.2285 18.7529 -23.8018 44.3574
q-7.57227 25.6045 -3.24512 55.1758zM129.913 441.596q-3.60645 -25.2441 2.88477 -47.2422t20.5557 -38.2266t34.6201 -25.6045t45.7998 -9.37598q24.5225 0 47.9629 8.65527q23.4404 8.6543 42.1934 24.5225q18.7529 15.8672 31.374 37.8652
q12.6221 21.998 16.2285 49.4062q3.60645 25.2432 -2.88477 47.2422q-6.49121 21.998 -20.5557 38.5869t-34.9805 25.9648q-20.917 9.37598 -46.1602 9.37598q-26.6865 0 -50.1279 -8.6543q-23.4404 -8.65527 -41.4717 -24.8838t-29.9316 -38.5869
q-11.9014 -22.3584 -15.5068 -49.0449z" />
    <glyph glyph-name="macron" unicode="&#xaf;" horiz-adv-x="399" 
d="M83 489l3 22h230l-3 -22h-230z" />
    <glyph glyph-name="mu" unicode="&#xb5;" horiz-adv-x="545" 
d="M405 -2h-28l8 55l9 45q-27 -48 -75 -76.5t-104 -28.5q-32 0 -53.5 12t-31.5 34l-33 -240h-28l81 576h28l-38 -268q-4 -35 16.5 -60t62.5 -27q32 0 63 10.5t55.5 29.5t41.5 45.5t21 57.5l30 212h28z" />
    <glyph glyph-name="multiply" unicode="&#xd7;" horiz-adv-x="500" 
d="M361 0q-26 29 -51 59t-51 59q-34 -29 -66.5 -59t-66.5 -59q-10 9 -17 20q34 29 67 58.5t67 59.5l-100 116l22 20l100 -117q34 30 67.5 59t67.5 59q7 -11 17 -20q-34 -29 -67.5 -58.5t-66.5 -58.5q25 -29 50 -59t50 -59z" />
    <glyph glyph-name="O" unicode="O" horiz-adv-x="840" 
d="M61 349q10 74 47.5 139.5t93 114t124.5 77t143 28.5t135.5 -28.5t103.5 -77t60.5 -114t8.5 -139.5t-47.5 -139t-93 -113.5t-125 -76.5t-143.5 -28t-135 28t-102.5 76.5t-60.5 113.5t-9 139zM89 348q-9 -68 8 -128t55.5 -104.5t94 -70.5t123.5 -26t132.5 26t116 71
t86.5 105t44 128q10 68 -7.5 128.5t-56.5 105.5t-95.5 71.5t-124.5 26.5t-131.5 -26.5t-114.5 -71.5t-85.5 -105.5t-44.5 -129.5z" />
    <glyph glyph-name="g" unicode="g" horiz-adv-x="518" 
d="M103 188q-5 -35 3.5 -65.5t28 -53t48.5 -35.5t64 -13t67.5 13t58.5 35.5t43.5 53t22.5 65.5t-4 65.5t-28.5 53.5t-48.5 36t-64 13t-67.5 -13t-58.5 -36t-43 -53.5t-22 -65.5zM471 375h21l-55 -393l-1 -8q-8 -53 -28.5 -94t-49.5 -69.5t-65.5 -44t-75.5 -16.5
q-42 2 -81.5 15.5t-62.5 44.5q5 5 11.5 9.5t12.5 9.5q20 -27 54 -39t69 -12q33 0 64 14t56.5 39.5t43.5 61.5t24 80l11 74q2 14 5 27t5 27q-12 -22 -31 -41.5t-43.5 -34t-53 -23t-58.5 -8.5q-41 0 -74.5 15t-56 41.5t-33 61.5t-4.5 76q6 44 26 80t50 61.5t67.5 39.5t78.5 14
q30 0 56 -8.5t46 -23.5t34 -35t20 -42q3 25 8 50t10 51z" />
    <glyph glyph-name="d" unicode="d" horiz-adv-x="523" 
d="M108 188q-5 -35 3.5 -65.5t28 -53t48.5 -35.5t64 -13t67.5 13t58.5 35.5t43 53t22 65.5t-4 65.5t-28.5 53.5t-48.5 36t-64 13t-67 -13t-58 -36t-43 -53.5t-22 -65.5zM80 188q6 42 26 77.5t50 62t67.5 41t78.5 14.5q30 0 56 -8.5t46.5 -23.5t34 -35t18.5 -42q2 13 3 25
t3 25l59 426h28l-105 -750h-26l7 50q2 13 4 25.5t4 26.5q-12 -22 -31 -41.5t-43 -34.5t-52.5 -24t-59.5 -9q-41 0 -74.5 15.5t-56 41.5t-33 61.5t-4.5 76.5z" />
    <glyph glyph-name="a" unicode="a" horiz-adv-x="500" 
d="M103 188q-5 -35 3.5 -65.5t28 -53t48.5 -35.5t64 -13t67.5 13t58.5 35.5t43.5 53t22.5 65.5t-4 65.5t-28.5 53.5t-48.5 36t-64 13t-67.5 -13t-58.5 -36t-43 -53.5t-22 -65.5zM75 188q6 43 26.5 79t50.5 62t67.5 40t77.5 14q30 0 56 -8.5t46 -23.5t34 -35t20 -42
q3 25 8 50t10 51h21l-52 -375h-25l6 50q2 13 4 25.5t4 26.5q-12 -22 -30.5 -41.5t-43 -34.5t-53 -24t-59.5 -9q-41 0 -74.5 15.5t-56 41.5t-33 61.5t-4.5 76.5z" />
    <glyph glyph-name="n" unicode="n" horiz-adv-x="495" 
d="M162 375h26l-6 -44q-2 -14 -4 -27t-5 -27q27 48 75 76.5t104 28.5q54 0 81.5 -31t21.5 -81l-37 -270h-28l37 268q4 35 -16 60t-63 27q-32 0 -62.5 -10.5t-55.5 -29.5t-42 -45.5t-21 -57.5l-29 -212h-28z" />
    </font>
</defs>
</svg>
